<?xml version="1.0" encoding="iso-8859-1"?>
<!-- Generator: Adobe Illustrator 27.1.0, SVG Export Plug-In . SVG Version: 6.00 Build 0)  -->
<svg version="1.1" id="Layer_1" xmlns="http://www.w3.org/2000/svg" xmlns:xlink="http://www.w3.org/1999/xlink" x="0px" y="0px"
	 viewBox="0 0 800 612" style="enable-background:new 0 0 800 612;" xml:space="preserve">
<g>
	<path d="M251.459,439.76L508.917,67.481c1.825-2.639,5.883-2.038,6.866,1.016l89.001,276.631
		c2.745,8.532,0.221,17.857-6.418,23.879c-33.045,29.975-140.768,116.98-306.304,146.504c-8.41,1.5-16.808-2.837-20.439-10.57
		c-8.155-17.369-16.48-34.401-21.665-44.906C246.733,453.502,247.314,445.752,251.459,439.76z"/>
	<g>
		<path style="fill:#D62511;" d="M292.266,5.058l32.102,58.261c1.55,2.813,1.371,6.263-0.463,8.9L94.148,402.664
			c-1.94,2.791-2.12,6.444-0.464,9.412l53.589,95.998c1.793,3.212-0.847,7.088-4.49,6.573c-15.348-2.169-46.45-7.271-57.856-14.335
			c-5.686-5.787-63.845-74.132-82.29-95.83c-3.293-3.873-3.522-9.468-0.58-13.614L276.472,4.16
			C280.457-1.455,288.942-0.973,292.266,5.058z"/>
	</g>
	<g>
		<path style="fill:#00812E;" d="M396.461,46.063l29.483,53.507c1.434,2.603,1.308,5.785-0.327,8.267l-215.432,326.92
			c-1.464,2.222-1.796,5.004-0.896,7.508l25.808,71.769c0.868,2.415-0.714,5.008-3.261,5.325c-10.24,1.275-33.79,3.266-44.803-3.554
			c-5.413-5.509-39.908-79.591-49.39-100.072c-1.503-3.247-1.19-7.023,0.81-9.991L381.297,45.385
			C385.015,39.869,393.251,40.237,396.461,46.063z"/>
	</g>
	<path d="M693.452,378.882c-100.604,96.228-184.507,145.929-241.79,167.773c-104.144,39.781-193.492,58.151-271.584,42.186
		c-43.288-14.93-74.484-39.146-93.957-57.283c83.302,28.424,192.925,37.843,331.706-24.283
		c154.413-64.731,314.504-224.288,277.429-323.656c-6.947-18.504-30.295-60.656-133.404-84.505
		c-2.037-0.468-4.142-0.935-6.246-1.403c4.175-1.002,8.317-1.904,12.459-2.739c87.577-17.536,168.308,1.369,199.137,51.07
		C813.629,220.895,733.467,336.897,693.452,378.882z"/>
	<path d="M547.833,76.674c25.803-4.775,52.025-7.664,78.353-7.814c26.286-0.122,52.806,2.216,78.378,9.292
		c12.769,3.518,25.244,8.379,36.884,14.925c11.613,6.545,22.403,14.858,31.174,25.107c8.789,10.21,15.462,22.296,19.429,35.195
		c1.967,6.411,3.608,12.8,4.932,19.375c1.323,6.567,2.136,13.246,2.602,19.899c0.92,13.339,0.293,26.762-1.665,39.977
		c-1.952,13.206-5.282,26.272-9.96,38.75c-9.138,25.064-22.304,48.455-37.594,70.075c-15.272,21.677-32.567,41.726-50.316,61.157
		c-17.742,19.447-36.425,38.278-56.388,55.564c-79.642,69.405-176.455,119.34-279.676,141.939
		c-25.824,5.488-52.031,9.189-78.373,10.818c-6.585,0.383-13.184,0.581-19.774,0.794l-9.895,0.032
		c-3.298,0.025-6.595,0.035-9.892-0.118c-13.15-0.278-26.475-1.034-39.497-3.442c-26.089-4.559-51.296-13.401-74.676-25.534
		c-23.433-12.071-45.013-27.545-64.169-45.483c9.884,8.633,20.281,16.664,31.196,23.902c10.889,7.27,22.22,13.87,33.98,19.577
		c23.476,11.474,48.594,19.591,74.331,23.451c6.432,0.965,12.897,1.686,19.378,2.119c6.465,0.479,13.01,0.466,19.533,0.599
		c3.262,0.102,6.525,0.04,9.788-0.037l9.787-0.184c6.518-0.314,13.038-0.611,19.543-1.091c26.022-2.019,51.865-6.082,77.292-11.902
		c50.775-11.952,100.077-30.233,146.371-54.256c11.613-5.927,22.969-12.341,34.221-18.921c11.148-6.755,22.239-13.618,32.968-21.026
		c21.604-14.6,42.202-30.657,61.866-47.767c19.771-17.033,38.169-35.474,55.85-54.748c17.702-19.25,34.747-39.043,49.937-60.136
		c15.163-21.08,28.137-43.749,37.185-67.96c9.12-24.091,13.61-50.003,12.261-75.758c-0.352-6.441-1.029-12.827-2.2-19.145
		c-1.166-6.308-2.692-12.672-4.486-18.831c-3.579-12.241-9.692-23.698-17.885-33.5c-8.175-9.833-18.371-17.946-29.503-24.429
		c-11.162-6.476-23.247-11.38-35.671-15.162c-24.917-7.524-51.147-10.475-77.277-10.952
		C600.002,70.646,573.777,72.738,547.833,76.674z"/>
</g>
</svg>
