<?xml version="1.0" encoding="iso-8859-1"?>
<!-- Generator: Adobe Illustrator 27.1.0, SVG Export Plug-In . SVG Version: 6.00 Build 0)  -->
<svg version="1.1" id="Layer_1" xmlns="http://www.w3.org/2000/svg" xmlns:xlink="http://www.w3.org/1999/xlink" x="0px" y="0px"
	 viewBox="0 0 695.5 591.5" style="enable-background:new 0 0 695.5 591.5;" xml:space="preserve">
<g>
	<g>
		<g>
			<path d="M407.854,330.101c1.647,1.02,2.09,2.467,2.065,4.401c-0.108,8.267-0.051,16.536-0.044,24.805
				c0.004,4.011,0.848,4.889,4.925,4.894c15.422,0.022,30.844,0.006,46.266,0.012c2.182,0.001,4.24-0.422,4.815-2.843
				c0.587-2.474-1.11-3.828-3.133-4.59c-5.271-1.986-10.305-4.694-16.082-5.165c-3.348-0.273-6.543,0.169-9.306,2.043
				c-2.032,1.377-4.15,1.35-6.381,1.352c-1.104,0.001-1.343-0.682-1.664-1.5c-0.374-0.953,0.197-1.297,0.809-1.787
				c6.755-5.411,14.388-6.682,22.555-4.405c4.36,1.215,8.607,2.911,12.795,4.654c5.669,2.361,7.419,6.022,6.033,12.117
				c4.289,0,8.559,0.224,12.792-0.076c3.025-0.214,3.686-2.856,3.75-5.365c0.056-2.19,0.477-3.523,3.084-3.496
				c2.631,0.028,2.961,1.473,3.034,3.599c0.125,3.647,1.942,5.361,5.636,5.434c3.9,0.077,7.803,0.036,11.705,0.022
				c3.694-0.014,4.646-0.934,4.656-4.581c0.021-7.897,0.044-15.794-0.019-23.69c-0.016-2.041,0.041-4.011,1.066-5.834
				c1.116,0,2.232,0,3.348,0c1.353,1.151,1.74,2.579,1.721,4.369c-0.09,8.831-0.022,17.663-0.048,26.495
				c-0.016,5.682-3.54,9.25-9.176,9.307c-3.997,0.04-7.996-0.043-11.992,0.024c-3.214,0.053-6.088-0.855-8.471-2.965
				c-1.075-0.952-1.706-0.875-2.723,0.022c-2.402,2.12-5.303,2.962-8.488,2.933c-2.882-0.026-5.887,0.513-8.615-0.136
				c-3.567-0.848-6.881-0.181-10.364-0.083c-16.721,0.47-33.462,0.212-50.196,0.209c-0.37,0-0.856,0.095-1.093-0.096
				c-2.995-2.411-5.767-0.799-8.977-0.239c-5.412,0.943-11.099,0.636-16.66,0.013c-2.714-0.304-4.633-3.454-6.759-3.187
				c-2.104,0.264-4.023,2.978-6.594,3.148c-5.031,0.333-10.13,1.327-15.075-0.651c-0.252-0.101-0.58-0.278-0.782-0.196
				c-6.56,2.653-13.399,0.589-20.081,1.18c-2.306,0.204-4.645,0.031-6.97,0.034c-0.825,0.001-1.574-0.131-1.768,1.138
				c-1.25,8.148-7.005,11.939-14.191,13.904c-8.85,2.42-16.903,0.993-23.58-5.87c-4.932-5.069-5.623-11.297-5.168-17.86
				c0.128-1.847,1.614-1.939,3.112-1.949c1.654-0.011,2.722,0.586,2.831,2.32c0.094,1.482,0.009,2.975,0.102,4.457
				c0.418,6.643,5.023,12.044,11.531,13.199c4.975,0.883,9.832,0.234,14.316-2.242c3.338-1.843,5.341-4.521,5.069-8.569
				c-0.118-1.758-0.003-3.532-0.025-5.298c-0.018-1.498-0.237-3.269,1.601-3.713c1.783-0.43,3.798-0.57,4.729,2.099
				c1.039-2.911,2.313-5.386,4.622-7.188c4.303-3.359,20.004-3.517,24.342-0.19c2.647,2.03,3.975,4.665,3.238,8.026
				c-0.322,1.469,0.238,1.838,1.522,1.804c3.34-0.089,6.688-0.051,10.019-0.27c2.79-0.183,3.992-1.891,4.022-5.618
				c0.017-2.143,0.668-3.312,3.032-3.293c2.064,0.017,3.014,0.739,3.106,2.915c0.192,4.572,1.856,6.029,6.461,6.048
				c3.718,0.016,7.436,0.083,11.154,0.069c3.417-0.013,4.297-0.895,4.306-4.315c0.021-8.46,0.068-16.921-0.039-25.379
				c-0.024-1.935,0.416-3.384,2.065-4.405C406.366,330.101,407.11,330.101,407.854,330.101z M333.301,364.18
				c5.785,0,11.53,0.014,17.275-0.008c1.83-0.007,3.533-0.628,3.618-2.661c0.091-2.195-1.467-3.4-3.58-3.454
				c-3.62-0.093-7.255-0.143-10.865,0.085C336.332,358.358,334.215,360.491,333.301,364.18z"/>
			<path d="M239.356,330.101c1.677,0.873,2.087,2.257,2.056,4.101c-0.104,6.318,0.001,12.639-0.069,18.959
				c-0.017,1.515,0.417,2.228,1.917,2.829c5.158,2.068,7.851,7.068,7.19,12.829c-0.562,4.906-3.983,8.696-8.712,9.656
				c-5.614,1.139-11.297-1.311-13.658-6.241c-0.807-1.685-1.737-1.993-3.386-1.988c-18.588,0.05-37.175,0.035-55.763,0.029
				c-6.644-0.002-9.984-3.286-10.003-9.88c-0.026-8.829,0.024-17.659-0.029-26.487c-0.012-2.055,0.352-3.375,2.856-3.39
				c2.487-0.014,3.225,1.091,3.207,3.396c-0.066,8.457-0.044,16.915-0.018,25.372c0.012,4.019,0.94,4.915,4.937,4.923
				c4.702,0.01,9.404,0.002,14.521,0.002c-1.506-2.622-1.345-5.035-1.32-7.431c0.051-4.949,3.792-8.788,8.794-8.9
				c3.53-0.079,7.063-0.023,10.595-0.017c8.034,0.015,12.558,6.134,10.291,13.921c-0.203,0.697-0.444,1.382-0.754,2.342
				c4.723,0,9.251-0.025,13.779,0.019c1.02,0.01,1.497-0.414,1.811-1.323c1.091-3.165,3.229-5.439,6.309-6.659
				c1.531-0.607,1.462-1.662,1.46-2.883c-0.011-6.413,0.047-12.826-0.04-19.238c-0.023-1.696,0.236-3.066,1.801-3.943
				C237.868,330.101,238.612,330.101,239.356,330.101z M198.448,353.767c-1.207,0-2.414-0.006-3.621,0.001
				c-3.591,0.021-5.511,1.472-5.677,4.283c-0.182,3.07,2.079,5.791,5.271,6.014c2.586,0.18,5.211,0.215,7.791-0.008
				c3.175-0.275,5.097-2.957,4.852-6.316c-0.197-2.705-1.853-3.955-5.274-3.973C200.676,353.762,199.562,353.767,198.448,353.767z
				 M238.968,372.578c3.65,0.028,5.937-1.941,5.957-5.127c0.021-3.461-2.846-6.272-6.422-6.297
				c-3.481-0.024-5.886,2.267-5.913,5.634C232.562,370.288,235.051,372.548,238.968,372.578z"/>
			<path d="M103.219,330.101c1.124,1.198,1.518,2.559,1.5,4.25c-0.09,8.455-0.072,16.912-0.026,25.369
				c0.022,4.092,0.455,4.483,4.476,4.486c4.088,0.003,8.176-0.102,12.263-0.045c1.404,0.02,2.04-0.398,2.63-1.766
				c2.783-6.451,9.563-8.963,16.017-6.109c5.756,2.546,8.453,10.167,5.651,16.143c-1.87,3.988-5.107,6.015-9.478,6.21
				c-5.152,0.23-9.374-1.544-11.807-6.258c-0.868-1.682-1.786-2.151-3.577-2.142c-14.868,0.072-29.737,0.025-44.605,0.058
				c-2.128,0.005-3.872-0.026-3.873-2.954c-0.001-2.766,1.461-3.167,3.733-3.157c6.918,0.031,6.918-0.017,6.918-6.876
				c0-6.319,0.048-12.639-0.025-18.957c-0.026-2.294,0.481-3.769,3.19-3.743c2.585,0.024,3.025,1.463,3.01,3.621
				c-0.055,7.805,0.056,15.613-0.073,23.417c-0.035,2.112,0.576,2.638,2.643,2.618c6.874-0.069,6.878,0.013,6.878-6.751
				c0-7.713,0.048-15.426-0.036-23.138c-0.019-1.778,0.28-3.234,1.802-4.273C101.359,330.101,102.289,330.101,103.219,330.101z
				 M135.269,372.578c3.726,0.009,5.878-1.869,5.883-5.136c0.005-3.557-2.699-6.16-6.412-6.173
				c-3.537-0.013-5.876,2.197-5.891,5.564C128.833,370.295,131.374,372.568,135.269,372.578z"/>
			<path d="M598.669,388.684c-2.075-4.061-1.227-5.682,3.241-6.197c8.008-0.924,11.661-4.989,11.725-13.092
				c0.029-3.716,0.05-7.433-0.011-11.149c-0.035-2.14,0.926-2.996,3.028-2.99c2.033,0.005,3.085,0.727,3.172,2.9
				c0.15,3.738,2.417,5.843,6.198,5.968c0.742,0.025,1.486,0.004,2.23,0.004c6.301,0,6.561-0.211,7.31-6.575
				c0.226-1.919,1.357-2.385,3.074-2.376c1.713,0.009,2.804,0.467,3.023,2.408c0.646,5.72,1.624,6.532,7.393,6.546
				c4.366,0.011,8.732,0.07,13.098,0.073c3.951,0.003,4.786-0.806,4.796-4.708c0.021-8.362,0.027-16.724-0.008-25.085
				c-0.009-2.123,0.065-3.85,2.974-3.901c2.862-0.051,3.1,1.5,3.084,3.728c-0.062,8.826-0.014,17.652-0.029,26.479
				c-0.011,6.092-3.408,9.532-9.426,9.558c-4.738,0.02-9.477-0.045-14.215,0.02c-3.475,0.047-6.651-0.74-9.267-3.096
				c-0.872-0.785-1.362-0.805-2.294-0.063c-4.905,3.91-10.386,3.996-16.042,2.053c-1.301-0.447-1.958-0.793-1.953,1.089
				c0.032,10.523-5.44,16.551-14.948,17.906c-0.21,0.03-0.382,0.328-0.572,0.501C602.388,388.684,600.529,388.684,598.669,388.684z"
				/>
			<path d="M0,356.324c0.619,0.072,0.991-0.379,1.472-0.641c2.956-1.61,5.1-0.344,5.147,2.993c0.065,4.582,1.007,5.531,5.563,5.533
				c12.914,0.006,25.827,0.01,38.741-0.002c5.392-0.005,6.385-0.896,6.595-6.171c0.087-2.186,1.133-2.854,3.169-2.87
				c2.116-0.016,3.141,0.788,3.016,2.948c-0.07,1.204-0.028,2.416-0.122,3.618c-0.387,4.947-3.686,8.421-8.641,8.463
				c-15.421,0.13-30.843,0.107-46.264,0.035c-3.851-0.018-6.932-2.828-7.974-6.641c-0.205-0.749,0.268-1.735-0.702-2.245
				C0,359.672,0,357.998,0,356.324z"/>
			<path d="M692.403,369.156c-1.415,1.415-3.215,1.526-4.854,0.874c-1.729-0.688-1.193-2.509-1.196-3.932
				c-0.021-10.63,0.034-21.261-0.058-31.891c-0.015-1.713,0.417-3.008,1.644-4.107c4.464,0,4.464,0,4.464,4.464
				C692.403,346.095,692.403,357.626,692.403,369.156z"/>
			<path d="M260.558,330.101c1.271,0.93,1.735,2.098,1.723,3.746c-0.084,10.971-0.072,21.944-0.019,32.916
				c0.01,2.175-0.416,3.534-3.019,3.566c-2.578,0.032-3.11-1.219-3.098-3.456c0.059-10.879,0.071-21.758-0.018-32.637
				c-0.014-1.716,0.396-3.032,1.642-4.135C258.698,330.101,259.628,330.101,260.558,330.101z"/>
			<path d="M549.007,362.653c0-1.394,0.07-2.793-0.016-4.182c-0.13-2.107,0.429-3.31,2.894-3.324
				c2.469-0.014,3.326,0.996,3.213,3.344c-0.111,2.318-0.035,4.646-0.022,6.97c0.037,6.599,4.349,12.044,10.863,13.731
				c7.38,1.911,14.767-0.81,18.008-6.588c0.827-1.474,1.314-2.321-1.193-2.391c-6.883-0.192-9.868-3.299-10.21-10.193
				c-0.055-1.113-0.022-2.23-0.019-3.346c0.01-4.425,1.878-7.75,6.012-9.486c4.142-1.739,8.009-0.919,11.474,1.84
				c1.674,1.333,2.741,3.135,2.784,5.267c0.1,5.004,0.548,10.056-0.775,14.972c-2.38,8.843-7.941,14.618-16.998,16.454
				c-9.408,1.907-18.347-1.987-23.245-9.666C549.144,371.931,548.69,367.376,549.007,362.653z M578.705,357.771
				c0,0.74-0.07,1.488,0.013,2.219c0.291,2.561,1.852,4.141,4.01,4.137c2.351-0.005,3.957-1.629,4.186-4.266
				c0.056-0.644,0.036-1.295,0.031-1.942c-0.025-3.534-1.632-5.523-4.43-5.489C580.019,352.459,578.686,354.314,578.705,357.771z"/>
			<path d="M30.365,353.601c-2.405,3.067-5.526,3.221-6.822,0.522c-0.772-1.608-0.527-3.13,0.888-4.242
				c1.526-1.2,3.124-0.946,4.571,0.236c0.665,0.543,0.957,1.42,2.095,0.285c1.808-1.804,3.941-1.624,5.289,0.046
				c1.201,1.487,0.982,3.909-0.451,5.001c-1.627,1.239-3.691,0.731-5.22-1.289C30.603,354.013,30.518,353.848,30.365,353.601z"/>
			<path d="M375.895,378.72c0.458-0.509,0.823-1.05,1.311-1.435c1.613-1.27,3.324-1.253,4.758,0.17
				c1.421,1.41,1.593,3.192,0.244,4.743c-1.354,1.557-3.264,1.689-4.678,0.339c-1.243-1.187-1.641-1.086-2.878,0.04
				c-1.52,1.383-3.53,1.101-4.921-0.535c-1.324-1.558-1.2-3.375,0.264-4.741c1.489-1.389,3.221-1.174,4.761,0.136
				C375.159,377.781,375.468,378.233,375.895,378.72z"/>
			<path d="M582.079,335.145c1.26-2.346,3.028-2.913,5.187-1.923c1.285,0.589,1.836,1.827,1.806,3.203
				c-0.028,1.279-0.626,2.346-1.852,2.864c-1.486,0.628-2.929,0.442-4.091-0.715c-0.64-0.637-0.832-1.522-1.95-0.269
				c-1.639,1.838-3.944,1.776-5.293,0.159c-1.306-1.566-1.273-3.265,0.054-4.773c1.255-1.427,3.712-1.115,5.385,0.547
				C581.517,334.428,581.673,334.653,582.079,335.145z"/>
			<path d="M630.679,385.277c-2.092-0.175-3.366-1.448-3.414-3.553c-0.047-2.036,1.215-3.27,3.293-3.389
				c2.036-0.116,3.9,1.708,3.699,3.671C634.051,384.009,632.893,385.186,630.679,385.277z"/>
			<path d="M490.721,345.196c0.858-1.692,2.148-2.573,4.037-2.24c1.731,0.305,2.513,1.531,2.783,3.079
				c0.243,1.393-0.276,2.683-1.565,3.296c-1.502,0.715-3.042,0.658-4.382-0.6c-0.406-0.381-0.417-1.89-1.644-0.488
				c-1.636,1.871-3.891,1.97-5.31,0.583c-1.348-1.318-1.36-3.747-0.025-5.014c1.507-1.43,3.521-1.17,5.332,0.683
				C490.135,344.687,490.345,344.856,490.721,345.196z"/>
			<path d="M447.31,341.759c-2.186-0.094-3.463-1.366-3.577-3.456c-0.112-2.048,1.166-3.269,3.211-3.475
				c1.997-0.201,3.879,1.581,3.768,3.571C450.596,340.464,449.417,341.577,447.31,341.759z"/>
		</g>
		<g>
			<path d="M0.984,590.6v-1.04h1.435c1.612,0,2.756-0.516,3.431-1.547c0.412-0.619,0.619-2.006,0.619-4.163V559.21
				c0-2.382-0.263-3.872-0.787-4.472c-0.731-0.826-1.819-1.238-3.263-1.238H0.984v-1.04h15.526c5.7,0,10.037,0.647,13.009,1.94
				c2.972,1.294,5.363,3.451,7.172,6.47c1.81,3.019,2.715,6.507,2.715,10.463c0,5.307-1.613,9.742-4.838,13.305
				c-3.619,3.975-9.132,5.963-16.539,5.963H0.984z M11.87,587.844c2.381,0.525,4.378,0.787,5.991,0.787
				c4.35,0,7.96-1.528,10.829-4.585c2.869-3.056,4.304-7.2,4.304-12.432c0-5.269-1.435-9.423-4.304-12.461
				s-6.554-4.557-11.054-4.557c-1.688,0-3.61,0.273-5.766,0.816V587.844z"/>
			<path d="M64.051,551.587c4.951,0,9.24,1.88,12.869,5.639c3.628,3.76,5.442,8.452,5.442,14.079c0,5.794-1.828,10.604-5.485,14.429
				c-3.656,3.826-8.083,5.738-13.277,5.738c-5.25,0-9.662-1.865-13.234-5.597s-5.358-8.56-5.358-14.486
				c0-6.057,2.063-10.999,6.188-14.824C54.778,553.246,59.063,551.587,64.051,551.587z M63.516,553.64
				c-3.413,0-6.15,1.266-8.213,3.797c-2.57,3.15-3.854,7.764-3.854,13.839c0,6.225,1.331,11.016,3.994,14.373
				c2.043,2.55,4.744,3.826,8.101,3.826c3.581,0,6.54-1.397,8.874-4.192c2.335-2.794,3.502-7.2,3.502-13.22
				c0-6.526-1.285-11.392-3.854-14.598C70.004,554.916,67.154,553.64,63.516,553.64z"/>
			<path d="M120.647,551.587l0.872,12.967h-0.872c-1.163-3.882-2.822-6.676-4.979-8.382c-2.156-1.706-4.744-2.56-7.763-2.56
				c-2.532,0-4.819,0.642-6.863,1.927c-2.044,1.284-3.652,3.333-4.824,6.146c-1.172,2.813-1.758,6.31-1.758,10.492
				c0,3.451,0.553,6.441,1.66,8.973c1.106,2.531,2.771,4.472,4.993,5.822c2.222,1.349,4.758,2.025,7.609,2.025
				c2.475,0,4.66-0.53,6.553-1.589c1.894-1.059,3.975-3.164,6.245-6.315l0.872,0.563c-1.913,3.394-4.144,5.878-6.694,7.454
				c-2.55,1.575-5.579,2.362-9.085,2.362c-6.32,0-11.214-2.344-14.683-7.031c-2.588-3.488-3.881-7.594-3.881-12.32
				c0-3.806,0.853-7.303,2.559-10.491c1.706-3.188,4.055-5.659,7.046-7.412c2.991-1.753,6.258-2.63,9.802-2.63
				c2.756,0,5.475,0.675,8.157,2.025c0.787,0.413,1.35,0.619,1.688,0.619c0.506,0,0.947-0.177,1.322-0.534
				c0.488-0.506,0.834-1.209,1.041-2.109H120.647z"/>
			<path d="M153.252,553.499v-1.04h13.501v1.04h-1.434c-1.501,0-2.654,0.629-3.46,1.885c-0.394,0.581-0.591,1.932-0.591,4.051v15.47
				c0,3.826-0.38,6.793-1.139,8.902c-0.759,2.11-2.25,3.92-4.472,5.429c-2.222,1.509-5.245,2.264-9.071,2.264
				c-4.163,0-7.323-0.722-9.479-2.166c-2.157-1.443-3.685-3.385-4.585-5.822c-0.6-1.669-0.9-4.8-0.9-9.395V559.21
				c0-2.344-0.323-3.882-0.97-4.613c-0.647-0.732-1.692-1.097-3.136-1.097h-1.435v-1.04h16.483v1.04h-1.462
				c-1.575,0-2.7,0.497-3.376,1.491c-0.469,0.675-0.703,2.082-0.703,4.219v16.623c0,1.482,0.136,3.178,0.408,5.091
				c0.272,1.913,0.764,3.403,1.477,4.472c0.712,1.069,1.739,1.95,3.08,2.645c1.34,0.693,2.986,1.04,4.936,1.04
				c2.494,0,4.726-0.543,6.695-1.632c1.969-1.087,3.314-2.48,4.036-4.177c0.722-1.696,1.083-4.57,1.083-8.621V559.21
				c0-2.382-0.263-3.872-0.788-4.472c-0.731-0.826-1.819-1.238-3.263-1.238H153.252z"/>
			<path d="M192.325,590.6l-14.739-32.094v25.484c0,2.344,0.253,3.806,0.759,4.388c0.693,0.787,1.79,1.182,3.291,1.182h1.35v1.04
				h-13.276v-1.04h1.35c1.613,0,2.757-0.487,3.432-1.463c0.412-0.6,0.619-1.969,0.619-4.107v-24.921
				c0-1.688-0.188-2.906-0.562-3.656c-0.263-0.543-0.746-0.998-1.449-1.364c-0.703-0.366-1.833-0.549-3.389-0.549v-1.04h10.801
				l13.839,29.844l13.614-29.844h10.801v1.04h-1.322c-1.631,0-2.785,0.488-3.459,1.463c-0.413,0.6-0.619,1.969-0.619,4.107v24.921
				c0,2.344,0.263,3.806,0.788,4.388c0.693,0.787,1.79,1.182,3.291,1.182h1.322v1.04h-16.201v-1.04h1.35
				c1.631,0,2.775-0.487,3.431-1.463c0.412-0.6,0.619-1.969,0.619-4.107v-25.484L193.253,590.6H192.325z"/>
			<path d="M233.396,554.54v15.076h8.382c2.175,0,3.628-0.327,4.359-0.984c0.975-0.862,1.519-2.381,1.632-4.557h1.041v13.277h-1.041
				c-0.263-1.856-0.525-3.047-0.787-3.572c-0.338-0.656-0.891-1.172-1.66-1.547c-0.769-0.375-1.951-0.563-3.544-0.563h-8.382v12.573
				c0,1.688,0.075,2.714,0.225,3.08c0.15,0.366,0.412,0.657,0.787,0.872c0.375,0.216,1.087,0.324,2.138,0.324h6.469
				c2.156,0,3.722-0.15,4.697-0.45c0.975-0.299,1.913-0.89,2.813-1.772c1.162-1.162,2.353-2.915,3.573-5.26h1.125l-3.291,9.563
				h-29.393v-1.04h1.35c0.9,0,1.753-0.216,2.56-0.647c0.6-0.3,1.008-0.75,1.224-1.35c0.215-0.6,0.324-1.829,0.324-3.685v-24.78
				c0-2.419-0.244-3.909-0.731-4.472c-0.675-0.75-1.8-1.126-3.376-1.126h-1.35v-1.04h29.393l0.422,8.354h-1.097
				c-0.394-2.006-0.83-3.385-1.308-4.135c-0.478-0.75-1.186-1.322-2.123-1.716c-0.751-0.281-2.072-0.422-3.966-0.422H233.396z"/>
			<path d="M257.168,552.459h10.351l23.318,28.606v-21.996c0-2.343-0.263-3.806-0.788-4.388c-0.694-0.787-1.791-1.182-3.291-1.182
				h-1.322v-1.04h13.277v1.04h-1.35c-1.613,0-2.756,0.488-3.431,1.463c-0.413,0.6-0.619,1.969-0.619,4.107v32.15h-1.013
				l-25.146-30.715v23.487c0,2.344,0.253,3.806,0.759,4.388c0.712,0.787,1.81,1.182,3.291,1.182h1.35v1.04h-13.276v-1.04h1.322
				c1.632,0,2.785-0.487,3.46-1.463c0.412-0.6,0.619-1.969,0.619-4.107v-26.525c-1.107-1.293-1.945-2.146-2.518-2.559
				c-0.572-0.413-1.411-0.797-2.517-1.153c-0.544-0.17-1.369-0.254-2.475-0.254V552.459z"/>
			<path d="M334.241,552.459l0.422,8.945h-1.069c-0.206-1.575-0.488-2.7-0.844-3.375c-0.581-1.087-1.355-1.889-2.32-2.405
				c-0.966-0.516-2.237-0.774-3.811-0.774h-5.372v29.141c0,2.344,0.253,3.806,0.759,4.388c0.712,0.787,1.809,1.182,3.291,1.182
				h1.322v1.04h-16.174v-1.04h1.35c1.613,0,2.756-0.487,3.431-1.463c0.412-0.6,0.619-1.969,0.619-4.107v-29.141h-4.585
				c-1.782,0-3.048,0.131-3.797,0.394c-0.976,0.356-1.81,1.04-2.503,2.053c-0.694,1.013-1.107,2.382-1.238,4.107h-1.069l0.45-8.945
				H334.241z"/>
			<path d="M363.893,551.587v13.191h-1.041c-0.337-2.531-0.941-4.547-1.814-6.047s-2.114-2.691-3.726-3.572
				c-1.614-0.882-3.283-1.322-5.009-1.322c-1.949,0-3.561,0.595-4.837,1.786c-1.276,1.191-1.913,2.546-1.913,4.064
				c0,1.163,0.403,2.222,1.21,3.179c1.163,1.406,3.928,3.282,8.297,5.625c3.563,1.913,5.995,3.38,7.299,4.402
				c1.304,1.023,2.306,2.227,3.01,3.614c0.702,1.388,1.055,2.842,1.055,4.36c0,2.888-1.122,5.377-3.361,7.468
				c-2.242,2.091-5.124,3.136-8.65,3.136c-1.106,0-2.147-0.084-3.122-0.253c-0.581-0.094-1.787-0.436-3.614-1.027
				c-1.828-0.59-2.986-0.886-3.474-0.886c-0.469,0-0.839,0.141-1.111,0.423c-0.272,0.281-0.474,0.863-0.605,1.743h-1.041v-13.079
				h1.041c0.487,2.739,1.144,4.787,1.969,6.146c0.825,1.36,2.086,2.49,3.783,3.39c1.696,0.9,3.557,1.35,5.583,1.35
				c2.344,0,4.195-0.619,5.556-1.856c1.359-1.238,2.04-2.7,2.04-4.388c0-0.938-0.259-1.885-0.775-2.842
				c-0.516-0.956-1.318-1.846-2.404-2.672c-0.731-0.563-2.728-1.758-5.991-3.586c-3.263-1.829-5.584-3.287-6.962-4.374
				c-1.379-1.087-2.424-2.288-3.136-3.601c-0.713-1.312-1.069-2.756-1.069-4.331c0-2.738,1.05-5.096,3.15-7.075
				c2.1-1.978,4.771-2.967,8.017-2.967c2.024,0,4.171,0.497,6.44,1.49c1.051,0.469,1.79,0.703,2.222,0.703
				c0.488,0,0.886-0.145,1.196-0.435c0.31-0.291,0.557-0.877,0.745-1.758H363.893z"/>
			<path d="M421.366,551.587l0.872,12.967h-0.872c-1.163-3.882-2.823-6.676-4.979-8.382c-2.156-1.706-4.744-2.56-7.763-2.56
				c-2.532,0-4.819,0.642-6.863,1.927c-2.044,1.284-3.653,3.333-4.824,6.146c-1.172,2.813-1.758,6.31-1.758,10.492
				c0,3.451,0.553,6.441,1.66,8.973c1.106,2.531,2.77,4.472,4.992,5.822c2.222,1.349,4.759,2.025,7.609,2.025
				c2.475,0,4.66-0.53,6.554-1.589c1.893-1.059,3.975-3.164,6.244-6.315l0.872,0.563c-1.913,3.394-4.145,5.878-6.694,7.454
				c-2.55,1.575-5.579,2.362-9.086,2.362c-6.32,0-11.213-2.344-14.683-7.031c-2.588-3.488-3.881-7.594-3.881-12.32
				c0-3.806,0.853-7.303,2.559-10.491c1.706-3.188,4.055-5.659,7.046-7.412c2.991-1.753,6.259-2.63,9.802-2.63
				c2.756,0,5.475,0.675,8.157,2.025c0.787,0.413,1.35,0.619,1.688,0.619c0.506,0,0.946-0.177,1.322-0.534
				c0.487-0.506,0.834-1.209,1.041-2.109H421.366z"/>
			<path d="M459.51,580.052l0.929,0.197l-3.263,10.351h-29.534v-1.04h1.435c1.613,0,2.766-0.526,3.459-1.576
				c0.394-0.6,0.591-1.988,0.591-4.162V559.21c0-2.382-0.263-3.872-0.787-4.472c-0.731-0.826-1.82-1.238-3.263-1.238h-1.435v-1.04
				h17.27v1.04c-2.025-0.018-3.446,0.17-4.261,0.563c-0.816,0.394-1.374,0.891-1.673,1.49c-0.301,0.601-0.45,2.036-0.45,4.304
				v23.965c0,1.556,0.149,2.625,0.45,3.206c0.225,0.394,0.572,0.684,1.04,0.872c0.469,0.188,1.931,0.281,4.388,0.281h2.785
				c2.925,0,4.978-0.216,6.16-0.647c1.182-0.43,2.259-1.195,3.235-2.292C457.56,584.145,458.536,582.414,459.51,580.052z"/>
			<path d="M475.098,554.54v15.076h8.382c2.175,0,3.628-0.327,4.359-0.984c0.975-0.862,1.519-2.381,1.632-4.557h1.04v13.277h-1.04
				c-0.263-1.856-0.526-3.047-0.787-3.572c-0.337-0.656-0.891-1.172-1.66-1.547c-0.769-0.375-1.95-0.563-3.544-0.563h-8.382v12.573
				c0,1.688,0.075,2.714,0.225,3.08c0.15,0.366,0.412,0.657,0.787,0.872c0.376,0.216,1.087,0.324,2.138,0.324h6.47
				c2.156,0,3.722-0.15,4.698-0.45c0.975-0.299,1.912-0.89,2.812-1.772c1.163-1.162,2.353-2.915,3.572-5.26h1.126l-3.292,9.563
				h-29.393v-1.04h1.35c0.9,0,1.753-0.216,2.559-0.647c0.6-0.3,1.008-0.75,1.224-1.35s0.324-1.829,0.324-3.685v-24.78
				c0-2.419-0.244-3.909-0.731-4.472c-0.675-0.75-1.8-1.126-3.375-1.126h-1.35v-1.04h29.393l0.423,8.354h-1.097
				c-0.394-2.006-0.83-3.385-1.308-4.135c-0.478-0.75-1.186-1.322-2.124-1.716c-0.75-0.281-2.072-0.422-3.965-0.422H475.098z"/>
			<path d="M525.985,577.83h-14.767l-2.589,6.019c-0.637,1.482-0.956,2.588-0.956,3.319c0,0.581,0.277,1.093,0.83,1.534
				c0.553,0.44,1.748,0.727,3.587,0.858v1.04h-12.011v-1.04c1.593-0.281,2.625-0.647,3.094-1.097c0.957-0.9,2.016-2.729,3.179-5.485
				l13.417-31.39h0.984l13.276,31.727c1.069,2.55,2.039,4.206,2.911,4.964c0.872,0.76,2.086,1.186,3.643,1.281v1.04h-15.048v-1.04
				c1.519-0.076,2.545-0.328,3.08-0.76c0.534-0.431,0.801-0.956,0.801-1.575c0-0.826-0.375-2.129-1.125-3.91L525.985,577.83z
				 M525.197,575.749l-6.469-15.414l-6.638,15.414H525.197z"/>
			<path d="M581.542,590.6H571.36l-12.911-17.833c-0.956,0.038-1.735,0.057-2.335,0.057c-0.244,0-0.506-0.005-0.787-0.015
				c-0.281-0.009-0.573-0.024-0.872-0.042v11.082c0,2.401,0.262,3.892,0.787,4.472c0.712,0.826,1.782,1.238,3.206,1.238h1.49v1.04
				h-16.342v-1.04h1.435c1.612,0,2.766-0.526,3.459-1.576c0.394-0.58,0.591-1.959,0.591-4.135V559.21c0-2.4-0.263-3.891-0.787-4.472
				c-0.732-0.826-1.82-1.238-3.263-1.238h-1.435v-1.04h13.895c4.051,0,7.036,0.295,8.958,0.886c1.922,0.59,3.554,1.678,4.895,3.262
				c1.34,1.585,2.011,3.474,2.011,5.667c0,2.344-0.765,4.379-2.292,6.104c-1.529,1.726-3.896,2.945-7.102,3.656l7.876,10.942
				c1.799,2.513,3.347,4.182,4.641,5.007c1.293,0.826,2.981,1.35,5.062,1.576V590.6z M554.455,570.995
				c0.356,0,0.665,0.005,0.928,0.014c0.263,0.01,0.479,0.015,0.647,0.015c3.638,0,6.38-0.788,8.228-2.363
				c1.846-1.575,2.77-3.581,2.77-6.02c0-2.381-0.745-4.317-2.236-5.808c-1.491-1.491-3.465-2.237-5.921-2.237
				c-1.087,0-2.559,0.178-4.415,0.534V570.995z"/>
			<path d="M600.193,589.56v1.04h-16.342v-1.04h1.35c1.575,0,2.719-0.46,3.432-1.379c0.45-0.6,0.675-2.043,0.675-4.332V559.21
				c0-1.932-0.123-3.207-0.366-3.826c-0.187-0.468-0.572-0.872-1.153-1.209c-0.826-0.45-1.688-0.676-2.588-0.676h-1.35v-1.04h16.342
				v1.04h-1.378c-1.557,0-2.692,0.46-3.404,1.379c-0.469,0.6-0.703,2.044-0.703,4.332v24.639c0,1.932,0.122,3.207,0.366,3.826
				c0.187,0.469,0.581,0.872,1.181,1.209c0.806,0.45,1.66,0.676,2.56,0.676H600.193z"/>
			<path d="M602.223,552.459h10.352l23.317,28.606v-21.996c0-2.343-0.263-3.806-0.787-4.388c-0.694-0.787-1.79-1.182-3.291-1.182
				h-1.322v-1.04h13.276v1.04h-1.349c-1.613,0-2.757,0.488-3.432,1.463c-0.413,0.6-0.619,1.969-0.619,4.107v32.15h-1.013
				l-25.146-30.715v23.487c0,2.344,0.253,3.806,0.759,4.388c0.713,0.787,1.81,1.182,3.292,1.182h1.35v1.04h-13.277v-1.04h1.322
				c1.632,0,2.785-0.487,3.46-1.463c0.412-0.6,0.619-1.969,0.619-4.107v-26.525c-1.107-1.293-1.946-2.146-2.518-2.559
				c-0.572-0.413-1.411-0.797-2.517-1.153c-0.544-0.17-1.369-0.254-2.476-0.254V552.459z"/>
			<path d="M681.322,551.587l0.984,12.038h-0.984c-0.994-2.999-2.278-5.26-3.854-6.778c-2.269-2.193-5.185-3.291-8.747-3.291
				c-4.857,0-8.551,1.922-11.082,5.766c-2.12,3.245-3.179,7.107-3.179,11.589c0,3.638,0.703,6.957,2.11,9.957
				c1.406,3,3.249,5.199,5.526,6.596c2.279,1.396,4.617,2.095,7.018,2.095c1.407,0,2.766-0.178,4.079-0.534
				c1.312-0.356,2.578-0.882,3.797-1.576v-11.026c0-1.912-0.145-3.164-0.435-3.755c-0.291-0.591-0.741-1.041-1.35-1.35
				c-0.61-0.31-1.684-0.464-3.221-0.464v-1.07h14.767v1.07h-0.703c-1.462,0-2.466,0.487-3.009,1.462
				c-0.376,0.694-0.563,2.063-0.563,4.107v11.673c-2.156,1.163-4.285,2.016-6.384,2.559c-2.101,0.544-4.435,0.816-7.004,0.816
				c-7.37,0-12.967-2.362-16.793-7.088c-2.869-3.544-4.304-7.632-4.304-12.264c0-3.356,0.806-6.572,2.419-9.648
				c1.913-3.656,4.538-6.47,7.876-8.439c2.795-1.631,6.094-2.446,9.902-2.446c1.387,0,2.648,0.113,3.783,0.337
				c1.134,0.224,2.743,0.722,4.824,1.49c1.049,0.394,1.753,0.591,2.109,0.591s0.661-0.164,0.914-0.492
				c0.254-0.328,0.408-0.971,0.465-1.927H681.322z"/>
		</g>
		<g>
			<path d="M64.377,480.579H28.172l-4.308,9.977c-1.411,3.325-2.116,6.072-2.116,8.238c0,2.872,1.159,4.988,3.477,6.349
				c1.361,0.807,4.711,1.411,10.052,1.814v2.797H1.189v-2.797c3.678-0.554,6.701-2.079,9.07-4.573
				c2.368-2.493,5.291-7.645,8.768-15.456l36.658-81.782h1.436l36.96,84.049c3.526,7.963,6.424,12.975,8.692,15.042
				c1.713,1.562,4.131,2.469,7.256,2.721v2.797H60.446v-2.797h2.041c3.98,0,6.777-0.554,8.389-1.663
				c1.108-0.805,1.663-1.965,1.663-3.477c0-0.907-0.151-1.839-0.453-2.797c-0.101-0.453-0.857-2.342-2.268-5.668L64.377,480.579z
				 M61.807,474.985l-15.268-35.297l-15.721,35.297H61.807z"/>
			<path d="M209.498,473.776l-3.855,35.978H114.64v-2.797h3.401c2.973,0,5.366-0.529,7.18-1.587c1.31-0.705,2.317-1.914,3.023-3.628
				c0.554-1.209,0.831-4.384,0.831-9.523v-67.421c0-5.24-0.277-8.515-0.831-9.826c-0.555-1.31-1.676-2.456-3.364-3.439
				c-1.689-0.982-3.968-1.474-6.84-1.474h-3.401v-2.797h54.647v2.797h-4.459c-2.974,0-5.367,0.529-7.18,1.587
				c-1.311,0.707-2.343,1.916-3.099,3.628c-0.555,1.21-0.831,4.384-0.831,9.524v65.304c0,5.241,0.302,8.579,0.907,10.015
				c0.605,1.436,1.788,2.507,3.553,3.212c1.259,0.453,4.308,0.681,9.145,0.681h8.541c5.442,0,9.977-0.957,13.605-2.873
				c3.628-1.914,6.765-4.937,9.41-9.07c2.645-4.131,5.152-10.228,7.521-18.291H209.498z"/>
			<path d="M322.571,455.41c9.724,2.267,16.552,5.014,20.483,8.238c5.643,4.586,8.465,10.532,8.465,17.838
				c0,7.709-3.099,14.085-9.297,19.122c-7.609,6.097-18.669,9.146-33.181,9.146h-52.077v-2.797c4.736,0,7.948-0.44,9.637-1.323
				c1.688-0.882,2.872-2.028,3.552-3.439c0.681-1.41,1.021-4.887,1.021-10.431v-66.514c0-5.542-0.34-9.032-1.021-10.468
				c-0.68-1.436-1.878-2.582-3.59-3.439c-1.714-0.856-4.913-1.285-9.599-1.285v-2.797h49.129c11.741,0,20.055,1.047,24.943,3.137
				c4.887,2.091,8.742,5.216,11.564,9.373c2.822,4.157,4.233,8.579,4.233,13.265c0,4.939-1.789,9.335-5.367,13.189
				C337.888,450.081,331.59,453.142,322.571,455.41z M295.058,459.264v32.879l-0.076,3.78c0,2.721,0.692,4.774,2.079,6.16
				c1.386,1.387,3.439,2.079,6.16,2.079c4.031,0,7.747-0.894,11.148-2.684c3.402-1.788,6.009-4.384,7.823-7.785
				c1.814-3.401,2.721-7.192,2.721-11.375c0-4.787-1.109-9.083-3.326-12.887c-2.217-3.805-5.266-6.463-9.146-7.975
				C308.562,459.945,302.768,459.214,295.058,459.264z M295.058,453.369c7.155,0,12.433-0.806,15.835-2.419
				c3.401-1.612,6.009-3.88,7.823-6.803c1.814-2.921,2.721-6.651,2.721-11.186s-0.895-8.25-2.683-11.149
				c-1.789-2.897-4.346-5.102-7.672-6.614c-3.326-1.511-8.667-2.242-16.023-2.191V453.369z"/>
			<path d="M421.359,480.579h-36.204l-4.309,9.977c-1.411,3.325-2.116,6.072-2.116,8.238c0,2.872,1.159,4.988,3.477,6.349
				c1.36,0.807,4.711,1.411,10.053,1.814v2.797h-34.089v-2.797c3.678-0.554,6.701-2.079,9.07-4.573
				c2.368-2.493,5.291-7.645,8.768-15.456l36.659-81.782h1.435l36.961,84.049c3.527,7.963,6.424,12.975,8.692,15.042
				c1.712,1.562,4.131,2.469,7.256,2.721v2.797h-49.583v-2.797h2.04c3.98,0,6.777-0.554,8.39-1.663
				c1.107-0.805,1.662-1.965,1.662-3.477c0-0.907-0.151-1.839-0.453-2.797c-0.102-0.453-0.858-2.342-2.268-5.668L421.359,480.579z
				 M418.79,474.985l-15.268-35.297L387.8,474.985H418.79z"/>
			<path d="M509.867,463.043v28.722c0,5.544,0.339,9.033,1.02,10.468c0.681,1.436,1.877,2.583,3.591,3.439
				c1.712,0.858,4.912,1.285,9.599,1.285v2.797h-52.455v-2.797c4.736,0,7.948-0.44,9.637-1.323c1.688-0.882,2.873-2.028,3.552-3.439
				c0.68-1.41,1.021-4.887,1.021-10.431v-66.514c0-5.542-0.34-9.032-1.021-10.468c-0.68-1.436-1.878-2.582-3.59-3.439
				c-1.714-0.856-4.913-1.285-9.599-1.285v-2.797h47.618c12.396,0,21.466,0.858,27.21,2.57c5.744,1.714,10.431,4.875,14.059,9.486
				c3.628,4.611,5.442,10.015,5.442,16.213c0,7.558-2.721,13.807-8.163,18.745c-3.477,3.124-8.341,5.467-14.588,7.029l24.64,34.693
				c3.224,4.485,5.517,7.281,6.878,8.39c2.066,1.563,4.459,2.419,7.18,2.57v2.797h-32.273l-33.03-46.711H509.867z M509.867,412.781
				v44.896h4.308c7.004,0,12.245-0.642,15.722-1.927c3.477-1.285,6.21-3.603,8.2-6.954c1.99-3.351,2.986-7.722,2.986-13.114
				c0-7.81-1.827-13.579-5.479-17.309c-3.654-3.729-9.537-5.593-17.649-5.593H509.867z"/>
			<path d="M654.534,510.661c2.317,6.701,5.921,11.74,10.809,15.117c4.887,3.375,11.009,5.063,18.366,5.063
				c2.015,0,4.158-0.202,6.424-0.604v4.61c-7.609,1.914-14.411,2.872-20.407,2.872c-9.373,0-17.751-2.293-25.132-6.878
				c-7.381-4.585-12.937-11.312-16.665-20.18c-12.396-2.619-22.387-8.693-29.969-18.216c-7.584-9.524-11.375-20.886-11.375-34.088
				c0-15.317,5.139-28.053,15.419-38.208c10.279-10.153,23.329-15.23,39.152-15.23c15.771,0,28.772,5.09,39.001,15.268
				c10.229,10.179,15.344,22.901,15.344,38.169c0,13.303-4.005,24.867-12.018,34.693
				C675.471,502.876,665.821,508.747,654.534,510.661z M641.08,410.664c-9.07,0-16.074,4.712-21.012,14.134
				c-4.133,7.911-6.198,19.173-6.198,33.786c0,17.536,3.099,30.536,9.297,39.002c4.333,5.895,10.305,8.842,17.914,8.842
				c7.659,0,13.63-2.897,17.914-8.691c6.198-8.315,9.296-20.811,9.296-37.49c0-16.426-1.94-28.318-5.819-35.675
				C657.633,415.301,650.502,410.664,641.08,410.664z"/>
		</g>
	</g>
	<g>
		<path d="M271.047,225.934l131.86-190.666c0.935-1.351,3.013-1.044,3.516,0.52l45.583,141.679c1.406,4.37,0.113,9.146-3.287,12.23
			c-16.924,15.352-72.096,59.912-156.877,75.033c-4.307,0.768-8.608-1.453-10.468-5.414c-4.177-8.896-8.441-17.619-11.096-22.999
			C268.627,232.972,268.924,229.003,271.047,225.934z"/>
		<g>
			<path style="fill:#D62511;" d="M291.946,3.297l16.441,29.839c0.794,1.441,0.702,3.208-0.237,4.558L190.478,206.935
				c-0.994,1.429-1.086,3.3-0.237,4.82l27.446,49.166c0.918,1.645-0.434,3.63-2.299,3.367c-7.861-1.111-23.79-3.724-29.632-7.342
				c-2.912-2.964-32.699-37.967-42.146-49.08c-1.686-1.984-1.804-4.849-0.297-6.973L283.857,2.837
				C285.898-0.039,290.244,0.208,291.946,3.297z"/>
		</g>
		<g>
			<path style="fill:#00812E;" d="M345.311,24.298l15.1,27.404c0.734,1.333,0.67,2.963-0.167,4.234L249.908,223.372
				c-0.75,1.138-0.92,2.563-0.459,3.845l13.218,36.757c0.445,1.237-0.366,2.565-1.67,2.727c-5.245,0.653-17.306,1.673-22.947-1.82
				c-2.772-2.822-20.439-40.763-25.296-51.253c-0.77-1.663-0.609-3.597,0.415-5.117L337.545,23.951
				C339.449,21.125,343.667,21.314,345.311,24.298z"/>
		</g>
		<path d="M497.418,194.754c-51.525,49.284-94.497,74.739-123.835,85.927c-53.339,20.374-99.099,29.783-139.094,21.606
			c-22.17-7.647-38.148-20.049-48.121-29.338c42.664,14.558,98.808,19.382,169.886-12.437
			C435.338,227.36,517.33,145.641,498.342,94.749c-3.558-9.477-15.516-31.066-68.324-43.28c-1.043-0.24-2.121-0.479-3.199-0.718
			c2.138-0.513,4.26-0.975,6.381-1.403c44.854-8.981,86.201,0.701,101.99,26.156C558.968,113.84,517.912,173.251,497.418,194.754z"
			/>
		<path d="M422.838,39.976c13.215-2.446,26.645-3.925,40.129-4.002c13.463-0.063,27.045,1.135,40.142,4.759
			c6.54,1.802,12.929,4.292,18.891,7.644c5.948,3.352,11.474,7.61,15.966,12.859c4.501,5.229,7.919,11.419,9.951,18.025
			c1.007,3.283,1.848,6.556,2.526,9.923c0.677,3.363,1.094,6.784,1.332,10.192c0.471,6.832,0.15,13.706-0.853,20.475
			c-1,6.763-2.705,13.455-5.101,19.846c-4.68,12.837-11.423,24.817-19.254,35.89c-7.822,11.102-16.679,21.37-25.77,31.322
			c-9.087,9.96-18.655,19.604-28.88,28.458c-40.789,35.547-90.373,61.121-143.239,72.695c-13.226,2.811-26.648,4.706-40.139,5.54
			c-3.373,0.196-6.752,0.297-10.128,0.407l-5.068,0.016c-1.689,0.013-3.378,0.018-5.066-0.06c-6.735-0.142-13.56-0.53-20.229-1.763
			c-13.362-2.335-26.272-6.864-38.246-13.078c-12.001-6.182-23.054-14.107-32.865-23.295c5.062,4.421,10.387,8.535,15.977,12.242
			c5.577,3.724,11.38,7.104,17.403,10.026c12.023,5.877,24.888,10.034,38.069,12.01c3.294,0.494,6.605,0.863,9.925,1.085
			c3.311,0.245,6.663,0.239,10.004,0.307c1.671,0.052,3.342,0.02,5.013-0.019l5.012-0.094c3.338-0.161,6.678-0.313,10.009-0.559
			c13.328-1.034,26.563-3.115,39.586-6.096c26.005-6.121,51.256-15.484,74.965-27.788c5.948-3.035,11.764-6.32,17.527-9.691
			c5.71-3.46,11.39-6.975,16.885-10.769c11.065-7.478,21.614-15.701,31.685-24.464c10.126-8.723,19.548-18.168,28.604-28.04
			c9.066-9.859,17.796-19.996,25.576-30.799c7.766-10.796,14.411-22.407,19.045-34.806c4.671-12.338,6.971-25.609,6.279-38.8
			c-0.18-3.299-0.527-6.569-1.127-9.806c-0.597-3.231-1.379-6.49-2.298-9.644c-1.833-6.27-4.964-12.137-9.16-17.157
			c-4.187-5.036-9.409-9.191-15.11-12.512c-5.716-3.317-11.906-5.828-18.269-7.765c-12.762-3.854-26.195-5.365-39.578-5.609
			C449.556,36.888,436.125,37.96,422.838,39.976z"/>
	</g>
</g>
</svg>
