<?xml version="1.0" encoding="utf-8"?>
<!-- Generator: Adobe Illustrator 27.1.0, SVG Export Plug-In . SVG Version: 6.00 Build 0)  -->
<svg version="1.1" id="Layer_1" xmlns="http://www.w3.org/2000/svg" xmlns:xlink="http://www.w3.org/1999/xlink" x="0px" y="0px"
	 viewBox="0 0 800 612" style="enable-background:new 0 0 800 612;" xml:space="preserve">
<style type="text/css">
	.st0{fill:#D62511;}
	.st1{fill:#00812E;}
</style>
<g>
	<path d="M251.5,439.8L508.9,67.5c1.8-2.6,5.9-2,6.9,1l89,276.6c2.7,8.5,0.2,17.9-6.4,23.9c-33,30-140.8,117-306.3,146.5
		c-8.4,1.5-16.8-2.8-20.4-10.6c-8.2-17.4-16.5-34.4-21.7-44.9C246.7,453.5,247.3,445.8,251.5,439.8z"/>
	<g>
		<path class="st0" d="M292.3,5.1l32.1,58.3c1.5,2.8,1.4,6.3-0.5,8.9L94.1,402.7c-1.9,2.8-2.1,6.4-0.5,9.4l53.6,96
			c1.8,3.2-0.8,7.1-4.5,6.6c-15.3-2.2-46.4-7.3-57.9-14.3c-5.7-5.8-63.8-74.1-82.3-95.8c-3.3-3.9-3.5-9.5-0.6-13.6L276.5,4.2
			C280.5-1.5,288.9-1,292.3,5.1z"/>
	</g>
	<g>
		<path class="st1" d="M396.5,46.1l29.5,53.5c1.4,2.6,1.3,5.8-0.3,8.3L210.2,434.8c-1.5,2.2-1.8,5-0.9,7.5l25.8,71.8
			c0.9,2.4-0.7,5-3.3,5.3c-10.2,1.3-33.8,3.3-44.8-3.6c-5.4-5.5-39.9-79.6-49.4-100.1c-1.5-3.2-1.2-7,0.8-10L381.3,45.4
			C385,39.9,393.3,40.2,396.5,46.1z"/>
	</g>
	<path d="M693.5,378.9c-100.6,96.2-184.5,145.9-241.8,167.8c-104.1,39.8-193.5,58.2-271.6,42.2c-43.3-14.9-74.5-39.1-94-57.3
		c83.3,28.4,192.9,37.8,331.7-24.3C572.2,442.5,732.3,283,695.3,183.6c-6.9-18.5-30.3-60.7-133.4-84.5c-2-0.5-4.1-0.9-6.2-1.4
		c4.2-1,8.3-1.9,12.5-2.7c87.6-17.5,168.3,1.4,199.1,51.1C813.6,220.9,733.5,336.9,693.5,378.9z"/>
	<path d="M547.8,76.7c25.8-4.8,52-7.7,78.4-7.8c26.3-0.1,52.8,2.2,78.4,9.3c12.8,3.5,25.2,8.4,36.9,14.9
		c11.6,6.5,22.4,14.9,31.2,25.1c8.8,10.2,15.5,22.3,19.4,35.2c2,6.4,3.6,12.8,4.9,19.4c1.3,6.6,2.1,13.2,2.6,19.9
		c0.9,13.3,0.3,26.8-1.7,40c-2,13.2-5.3,26.3-10,38.8c-9.1,25.1-22.3,48.5-37.6,70.1c-15.3,21.7-32.6,41.7-50.3,61.2
		c-17.7,19.4-36.4,38.3-56.4,55.6C564,527.6,467.2,577.5,364,600.1c-25.8,5.5-52,9.2-78.4,10.8c-6.6,0.4-13.2,0.6-19.8,0.8l-9.9,0
		c-3.3,0-6.6,0-9.9-0.1c-13.1-0.3-26.5-1-39.5-3.4c-26.1-4.6-51.3-13.4-74.7-25.5c-23.4-12.1-45-27.5-64.2-45.5
		c9.9,8.6,20.3,16.7,31.2,23.9c10.9,7.3,22.2,13.9,34,19.6c23.5,11.5,48.6,19.6,74.3,23.5c6.4,1,12.9,1.7,19.4,2.1
		c6.5,0.5,13,0.5,19.5,0.6c3.3,0.1,6.5,0,9.8,0l9.8-0.2c6.5-0.3,13-0.6,19.5-1.1c26-2,51.9-6.1,77.3-11.9
		c50.8-12,100.1-30.2,146.4-54.3c11.6-5.9,23-12.3,34.2-18.9c11.1-6.8,22.2-13.6,33-21c21.6-14.6,42.2-30.7,61.9-47.8
		c19.8-17,38.2-35.5,55.8-54.7c17.7-19.2,34.7-39,49.9-60.1c15.2-21.1,28.1-43.7,37.2-68c9.1-24.1,13.6-50,12.3-75.8
		c-0.4-6.4-1-12.8-2.2-19.1c-1.2-6.3-2.7-12.7-4.5-18.8c-3.6-12.2-9.7-23.7-17.9-33.5c-8.2-9.8-18.4-17.9-29.5-24.4
		C728,90.7,715.9,85.8,703.5,82c-24.9-7.5-51.1-10.5-77.3-11C600,70.6,573.8,72.7,547.8,76.7z"/>
</g>
</svg>
