<?xml version="1.0" encoding="iso-8859-1"?>
<!-- Generator: Adobe Illustrator 27.1.0, SVG Export Plug-In . SVG Version: 6.00 Build 0)  -->
<svg version="1.1" id="Layer_1" xmlns="http://www.w3.org/2000/svg" xmlns:xlink="http://www.w3.org/1999/xlink" x="0px" y="0px"
	 viewBox="0 0 1031 287" style="enable-background:new 0 0 1031 287;" xml:space="preserve">
<g>
	<g>
		<path style="fill:none;stroke:#231F20;stroke-miterlimit:10;" d="M711.148,261.412"/>
		<g>
			<path d="M768.592,18.527c1.48,0.917,1.878,2.217,1.856,3.955c-0.097,7.428-0.046,14.859-0.039,22.288
				c0.003,3.604,0.762,4.393,4.425,4.398c13.857,0.02,27.715,0.006,41.573,0.011c1.96,0.001,3.81-0.379,4.326-2.555
				c0.528-2.223-0.998-3.44-2.815-4.125c-4.736-1.785-9.259-4.217-14.451-4.641c-3.009-0.245-5.879,0.152-8.362,1.836
				c-1.826,1.237-3.729,1.213-5.733,1.215c-0.992,0.001-1.207-0.613-1.495-1.348c-0.336-0.856,0.177-1.165,0.727-1.606
				c6.07-4.862,12.928-6.004,20.267-3.959c3.918,1.092,7.734,2.615,11.497,4.182c5.094,2.121,6.667,5.412,5.421,10.888
				c3.854,0,7.691,0.202,11.494-0.068c2.719-0.193,3.312-2.566,3.369-4.82c0.05-1.968,0.428-3.166,2.771-3.141
				c2.364,0.025,2.661,1.324,2.726,3.234c0.112,3.277,1.745,4.817,5.064,4.882c3.505,0.069,7.012,0.032,10.518,0.019
				c3.319-0.012,4.175-0.839,4.184-4.116c0.018-7.096,0.039-14.192-0.017-21.287c-0.015-1.834,0.037-3.604,0.958-5.243
				c1.003,0,2.005,0,3.008,0c1.216,1.034,1.563,2.317,1.547,3.926c-0.081,7.935-0.02,15.871-0.043,23.807
				c-0.015,5.105-3.181,8.311-8.245,8.363c-3.592,0.036-7.185-0.039-10.776,0.021c-2.888,0.048-5.47-0.768-7.612-2.664
				c-0.966-0.855-1.533-0.787-2.447,0.02c-2.158,1.905-4.765,2.662-7.627,2.636c-2.589-0.024-5.29,0.461-7.741-0.122
				c-3.206-0.762-6.183-0.163-9.313-0.075c-15.024,0.422-30.067,0.191-45.104,0.188c-0.333,0-0.769,0.086-0.982-0.086
				c-2.691-2.167-5.182-0.718-8.067-0.215c-4.863,0.848-9.973,0.571-14.97,0.012c-2.438-0.273-4.163-3.104-6.074-2.864
				c-1.89,0.238-3.615,2.676-5.925,2.828c-4.521,0.299-9.102,1.192-13.546-0.585c-0.226-0.09-0.521-0.25-0.703-0.176
				c-5.895,2.384-12.04,0.53-18.044,1.06c-2.072,0.183-4.174,0.028-6.263,0.031c-0.742,0.001-1.414-0.118-1.589,1.022
				c-1.123,7.321-6.294,10.728-12.751,12.493c-7.952,2.174-15.189,0.892-21.188-5.274c-4.432-4.555-5.053-10.151-4.644-16.048
				c0.115-1.66,1.45-1.743,2.796-1.751c1.486-0.01,2.446,0.526,2.544,2.085c0.084,1.332,0.008,2.673,0.092,4.005
				c0.376,5.969,4.514,10.822,10.361,11.86c4.47,0.793,8.834,0.21,12.863-2.014c2.999-1.656,4.799-4.062,4.554-7.7
				c-0.106-1.58-0.003-3.173-0.022-4.76c-0.016-1.346-0.213-2.937,1.439-3.336c1.602-0.387,3.412-0.512,4.249,1.886
				c0.934-2.615,2.079-4.84,4.153-6.459c3.867-3.018,17.975-3.16,21.872-0.171c2.379,1.824,3.572,4.192,2.909,7.212
				c-0.29,1.32,0.214,1.651,1.368,1.621c3.001-0.08,6.009-0.046,9.002-0.243c2.507-0.164,3.587-1.699,3.614-5.048
				c0.015-1.926,0.6-2.976,2.724-2.959c1.855,0.015,2.708,0.664,2.791,2.619c0.173,4.109,1.668,5.417,5.806,5.435
				c3.341,0.014,6.682,0.075,10.022,0.062c3.07-0.012,3.861-0.804,3.869-3.877c0.019-7.602,0.061-15.204-0.035-22.805
				c-0.022-1.738,0.374-3.041,1.856-3.958C767.255,18.527,767.924,18.527,768.592,18.527z M701.602,49.149
				c5.198,0,10.36,0.012,15.522-0.007c1.645-0.006,3.175-0.565,3.251-2.391c0.082-1.973-1.319-3.055-3.216-3.103
				c-3.253-0.083-6.519-0.128-9.763,0.076C704.326,43.918,702.423,45.834,701.602,49.149z"/>
			<path d="M617.187,18.527c1.506,0.784,1.875,2.028,1.848,3.685c-0.093,5.677,0.001,11.357-0.062,17.035
				c-0.015,1.361,0.375,2.002,1.722,2.542c4.635,1.858,7.054,6.351,6.461,11.528c-0.505,4.408-3.579,7.814-7.829,8.677
				c-5.045,1.024-10.151-1.178-12.273-5.608c-0.725-1.514-1.561-1.79-3.043-1.787c-16.702,0.044-33.404,0.032-50.106,0.026
				c-5.97-0.002-8.971-2.953-8.988-8.878c-0.023-7.933,0.022-15.867-0.026-23.8c-0.011-1.847,0.317-3.033,2.566-3.046
				c2.235-0.013,2.898,0.98,2.882,3.051c-0.059,7.599-0.039,15.199-0.016,22.798c0.011,3.611,0.844,4.416,4.436,4.424
				c4.225,0.009,8.45,0.002,13.048,0.002c-1.353-2.356-1.208-4.524-1.186-6.677c0.046-4.447,3.408-7.896,7.902-7.997
				c3.172-0.071,6.346-0.021,9.52-0.015c7.219,0.013,11.284,5.512,9.247,12.509c-0.182,0.626-0.399,1.242-0.678,2.105
				c4.244,0,8.313-0.023,12.381,0.017c0.917,0.009,1.345-0.372,1.627-1.189c0.98-2.844,2.901-4.887,5.669-5.984
				c1.376-0.545,1.313-1.493,1.312-2.59c-0.01-5.762,0.043-11.525-0.036-17.286c-0.021-1.524,0.212-2.755,1.618-3.543
				C615.85,18.527,616.519,18.527,617.187,18.527z M580.429,39.793c-1.085,0-2.169-0.005-3.253,0.001
				c-3.227,0.019-4.952,1.323-5.101,3.849c-0.163,2.758,1.868,5.204,4.736,5.404c2.324,0.162,4.682,0.193,7-0.008
				c2.853-0.247,4.58-2.657,4.36-5.676c-0.177-2.431-1.665-3.554-4.739-3.57C582.431,39.788,581.43,39.793,580.429,39.793z
				 M616.839,56.695c3.28,0.025,5.335-1.744,5.352-4.607c0.019-3.11-2.557-5.636-5.77-5.658c-3.128-0.021-5.289,2.037-5.313,5.063
				C611.082,54.638,613.319,56.668,616.839,56.695z"/>
			<path d="M494.86,18.527c1.01,1.076,1.364,2.3,1.348,3.819c-0.081,7.598-0.065,15.197-0.024,22.795
				c0.02,3.677,0.409,4.028,4.022,4.031c3.673,0.003,7.347-0.092,11.019-0.041c1.262,0.018,1.833-0.358,2.363-1.587
				c2.501-5.797,8.593-8.054,14.392-5.489c5.172,2.288,7.595,9.136,5.078,14.506c-1.68,3.583-4.589,5.405-8.516,5.58
				c-4.629,0.207-8.423-1.388-10.609-5.623c-0.78-1.512-1.605-1.933-3.215-1.925c-13.36,0.064-26.72,0.022-40.08,0.052
				c-1.912,0.004-3.479-0.023-3.48-2.655c-0.001-2.485,1.312-2.846,3.354-2.837c6.216,0.028,6.216-0.015,6.216-6.178
				c0-5.678,0.043-11.357-0.023-17.034c-0.024-2.061,0.432-3.386,2.866-3.363c2.323,0.022,2.718,1.315,2.704,3.254
				c-0.049,7.014,0.051,14.029-0.066,21.041c-0.031,1.898,0.518,2.371,2.375,2.352c6.176-0.062,6.18,0.012,6.18-6.066
				c0-6.931,0.043-13.862-0.032-20.791c-0.017-1.598,0.252-2.906,1.619-3.84C493.189,18.527,494.025,18.527,494.86,18.527z
				 M523.659,56.695c3.348,0.008,5.282-1.68,5.286-4.615c0.005-3.196-2.425-5.535-5.762-5.547c-3.178-0.011-5.28,1.974-5.293,4.999
				C517.876,54.644,520.159,56.686,523.659,56.695z"/>
			<path d="M940.051,71.167c-1.865-3.649-1.103-5.105,2.912-5.569c7.195-0.83,10.478-4.483,10.535-11.764
				c0.026-3.339,0.045-6.679-0.01-10.018c-0.032-1.923,0.832-2.692,2.72-2.687c1.827,0.005,2.772,0.653,2.85,2.605
				c0.135,3.358,2.172,5.25,5.569,5.363c0.667,0.022,1.336,0.004,2.003,0.004c5.661,0,5.896-0.19,6.568-5.908
				c0.203-1.724,1.22-2.143,2.762-2.135c1.54,0.008,2.519,0.42,2.716,2.164c0.581,5.14,1.46,5.87,6.643,5.882
				c3.923,0.01,7.846,0.062,11.769,0.065c3.55,0.003,4.301-0.725,4.309-4.23c0.019-7.513,0.025-15.027-0.007-22.54
				c-0.008-1.907,0.059-3.459,2.672-3.506c2.571-0.046,2.786,1.347,2.771,3.35c-0.056,7.931-0.013,15.862-0.026,23.793
				c-0.01,5.474-3.062,8.565-8.47,8.588c-4.258,0.018-8.516-0.04-12.773,0.018c-3.123,0.042-5.977-0.665-8.327-2.782
				c-0.783-0.705-1.224-0.724-2.061-0.056c-4.408,3.513-9.333,3.591-14.414,1.845c-1.169-0.402-1.76-0.712-1.754,0.978
				c0.029,9.456-4.888,14.872-13.431,16.089c-0.189,0.027-0.343,0.295-0.514,0.45C943.393,71.167,941.722,71.167,940.051,71.167z"/>
			<path d="M402.112,42.09c0.556,0.064,0.89-0.341,1.322-0.576c2.656-1.446,4.582-0.31,4.625,2.689
				c0.059,4.117,0.905,4.97,4.999,4.972c11.604,0.006,23.207,0.009,34.811-0.002c4.845-0.005,5.737-0.805,5.926-5.545
				c0.078-1.964,1.018-2.564,2.847-2.579c1.902-0.015,2.822,0.708,2.71,2.649c-0.063,1.082-0.025,2.171-0.11,3.251
				c-0.348,4.445-3.312,7.567-7.764,7.604c-13.856,0.117-27.714,0.096-41.571,0.032c-3.46-0.016-6.228-2.541-7.165-5.967
				c-0.184-0.673,0.241-1.559-0.63-2.017C402.112,45.098,402.112,43.594,402.112,42.09z"/>
			<path d="M1024.276,53.621c-1.271,1.271-2.889,1.371-4.361,0.785c-1.554-0.619-1.072-2.254-1.075-3.533
				c-0.019-9.552,0.031-19.104-0.052-28.656c-0.013-1.539,0.374-2.703,1.477-3.69c4.011,0,4.011,0,4.011,4.011
				C1024.276,32.898,1024.276,43.26,1024.276,53.621z"/>
			<path d="M636.238,18.527c1.143,0.835,1.559,1.886,1.548,3.366c-0.075,9.858-0.065,19.718-0.017,29.577
				c0.009,1.954-0.374,3.175-2.713,3.204c-2.317,0.029-2.795-1.096-2.784-3.106c0.053-9.775,0.063-19.551-0.016-29.326
				c-0.013-1.542,0.356-2.725,1.476-3.715C634.567,18.527,635.403,18.527,636.238,18.527z"/>
			<path d="M895.426,47.777c0-1.253,0.063-2.509-0.015-3.758c-0.117-1.894,0.385-2.974,2.6-2.987
				c2.218-0.013,2.988,0.895,2.887,3.005c-0.1,2.083-0.032,4.175-0.02,6.263c0.033,5.929,3.908,10.822,9.761,12.338
				c6.631,1.717,13.269-0.728,16.181-5.92c0.743-1.324,1.181-2.085-1.072-2.148c-6.185-0.173-8.867-2.964-9.174-9.159
				c-0.05-1-0.02-2.004-0.017-3.006c0.009-3.976,1.687-6.964,5.402-8.523c3.722-1.563,7.197-0.826,10.31,1.653
				c1.504,1.198,2.463,2.817,2.501,4.733c0.09,4.496,0.492,9.036-0.697,13.453c-2.138,7.946-7.135,13.135-15.274,14.785
				c-8.454,1.714-16.485-1.785-20.887-8.686C895.549,56.114,895.142,52.021,895.426,47.777z M922.112,43.39
				c0,0.665-0.063,1.337,0.011,1.994c0.262,2.301,1.664,3.721,3.603,3.717c2.112-0.005,3.556-1.463,3.761-3.833
				c0.05-0.578,0.032-1.163,0.028-1.745c-0.022-3.176-1.466-4.962-3.98-4.933C923.293,38.617,922.095,40.284,922.112,43.39z"/>
			<path d="M429.397,39.643c-2.161,2.756-4.966,2.894-6.13,0.469c-0.694-1.445-0.473-2.812,0.798-3.812
				c1.371-1.078,2.807-0.85,4.107,0.212c0.598,0.488,0.86,1.276,1.882,0.256c1.625-1.621,3.541-1.459,4.752,0.042
				c1.079,1.336,0.883,3.513-0.405,4.493c-1.462,1.113-3.316,0.657-4.691-1.158C429.611,40.014,429.535,39.865,429.397,39.643z"/>
			<path d="M739.875,62.214c0.411-0.458,0.739-0.944,1.178-1.289c1.449-1.141,2.987-1.126,4.275,0.153
				c1.276,1.267,1.431,2.868,0.22,4.262c-1.217,1.399-2.933,1.518-4.204,0.305c-1.117-1.066-1.474-0.976-2.586,0.036
				c-1.366,1.243-3.172,0.989-4.422-0.481c-1.19-1.4-1.078-3.033,0.237-4.26c1.338-1.248,2.894-1.055,4.278,0.122
				C739.214,61.37,739.492,61.777,739.875,62.214z"/>
			<path d="M925.144,23.059c1.132-2.108,2.721-2.617,4.661-1.728c1.155,0.53,1.65,1.642,1.623,2.878
				c-0.025,1.149-0.562,2.108-1.664,2.573c-1.335,0.564-2.632,0.397-3.676-0.642c-0.575-0.572-0.747-1.368-1.752-0.242
				c-1.472,1.651-3.544,1.596-4.756,0.143c-1.174-1.407-1.144-2.933,0.048-4.289c1.128-1.282,3.336-1.002,4.839,0.492
				C924.638,22.415,924.779,22.617,925.144,23.059z"/>
			<path d="M968.814,68.106c-1.88-0.157-3.024-1.301-3.068-3.192c-0.042-1.829,1.092-2.939,2.959-3.045
				c1.829-0.104,3.504,1.534,3.323,3.299C971.844,66.967,970.803,68.024,968.814,68.106z"/>
			<path d="M843.054,32.091c0.771-1.521,1.93-2.312,3.628-2.013c1.556,0.274,2.258,1.376,2.501,2.767
				c0.219,1.252-0.248,2.41-1.406,2.962c-1.349,0.642-2.733,0.592-3.937-0.539c-0.365-0.343-0.375-1.698-1.477-0.438
				c-1.47,1.681-3.496,1.77-4.772,0.524c-1.212-1.184-1.222-3.366-0.022-4.505c1.354-1.285,3.164-1.052,4.791,0.614
				C842.527,31.633,842.715,31.785,843.054,32.091z"/>
			<path d="M804.046,29.002c-1.965-0.084-3.112-1.227-3.214-3.105c-0.101-1.84,1.048-2.938,2.885-3.122
				c1.795-0.18,3.485,1.42,3.385,3.209C806.999,27.839,805.939,28.839,804.046,29.002z"/>
		</g>
		<g>
			<path d="M402.996,252.601v-0.936h1.289c1.449,0,2.477-0.463,3.083-1.39c0.371-0.556,0.556-1.803,0.556-3.74v-22.141
				c0-2.14-0.236-3.479-0.708-4.019c-0.657-0.741-1.635-1.112-2.932-1.112h-1.289v-0.935h13.951c5.122,0,9.019,0.581,11.689,1.743
				c2.67,1.163,4.819,3.101,6.445,5.813s2.439,5.847,2.439,9.402c0,4.769-1.449,8.753-4.347,11.954
				c-3.252,3.572-8.206,5.358-14.861,5.358H402.996z M412.777,250.124c2.14,0.472,3.934,0.707,5.384,0.707
				c3.909,0,7.152-1.373,9.73-4.119s3.867-6.471,3.867-11.172c0-4.734-1.289-8.467-3.867-11.196s-5.889-4.094-9.933-4.094
				c-1.517,0-3.244,0.244-5.182,0.732V250.124z"/>
			<path d="M459.665,217.545c4.448,0,8.302,1.689,11.562,5.067c3.261,3.379,4.891,7.596,4.891,12.65
				c0,5.206-1.643,9.528-4.928,12.966c-3.286,3.437-7.263,5.155-11.93,5.155c-4.718,0-8.682-1.676-11.892-5.029
				c-3.209-3.353-4.814-7.691-4.814-13.017c0-5.441,1.853-9.882,5.56-13.319C451.333,219.036,455.183,217.545,459.665,217.545z
				 M459.185,219.391c-3.067,0-5.527,1.137-7.38,3.411c-2.309,2.831-3.463,6.977-3.463,12.436c0,5.594,1.196,9.899,3.589,12.915
				c1.836,2.292,4.263,3.438,7.279,3.438c3.218,0,5.876-1.255,7.974-3.766c2.098-2.511,3.146-6.471,3.146-11.879
				c0-5.864-1.154-10.236-3.462-13.118C465.014,220.536,462.453,219.391,459.185,219.391z"/>
			<path d="M510.521,217.545l0.783,11.651h-0.783c-1.045-3.487-2.536-5.998-4.474-7.531s-4.263-2.3-6.976-2.3
				c-2.274,0-4.331,0.577-6.167,1.731c-1.837,1.154-3.282,2.994-4.335,5.521c-1.053,2.528-1.579,5.671-1.579,9.428
				c0,3.101,0.496,5.788,1.491,8.062c0.994,2.274,2.489,4.019,4.486,5.231c1.996,1.214,4.274,1.82,6.836,1.82
				c2.225,0,4.188-0.476,5.89-1.428c1.701-0.952,3.571-2.844,5.61-5.675l0.783,0.506c-1.718,3.05-3.724,5.282-6.015,6.697
				c-2.292,1.416-5.013,2.123-8.164,2.123c-5.678,0-10.076-2.105-13.193-6.318c-2.325-3.134-3.488-6.824-3.488-11.07
				c0-3.42,0.767-6.562,2.3-9.427c1.533-2.864,3.644-5.084,6.331-6.66c2.688-1.575,5.624-2.363,8.809-2.363
				c2.477,0,4.92,0.606,7.329,1.82c0.708,0.37,1.213,0.556,1.517,0.556c0.455,0,0.851-0.16,1.188-0.48
				c0.438-0.455,0.75-1.087,0.936-1.896H510.521z"/>
			<path d="M539.817,219.264v-0.935h12.132v0.935h-1.289c-1.348,0-2.384,0.564-3.108,1.693c-0.354,0.522-0.531,1.735-0.531,3.64
				v13.9c0,3.438-0.341,6.104-1.023,8s-2.021,3.521-4.019,4.878c-1.996,1.355-4.714,2.034-8.15,2.034
				c-3.741,0-6.58-0.648-8.518-1.946c-1.938-1.297-3.312-3.041-4.12-5.231c-0.539-1.499-0.809-4.313-0.809-8.441v-13.396
				c0-2.106-0.291-3.488-0.872-4.145c-0.581-0.657-1.521-0.986-2.818-0.986h-1.289v-0.935h14.812v0.935h-1.314
				c-1.416,0-2.427,0.447-3.033,1.34c-0.421,0.606-0.632,1.87-0.632,3.791v14.938c0,1.331,0.122,2.855,0.366,4.574
				s0.687,3.059,1.327,4.019c0.641,0.961,1.562,1.753,2.768,2.376c1.204,0.623,2.683,0.935,4.436,0.935
				c2.241,0,4.246-0.488,6.016-1.466c1.769-0.977,2.978-2.228,3.627-3.753c0.648-1.524,0.973-4.107,0.973-7.746v-13.876
				c0-2.14-0.236-3.479-0.708-4.019c-0.656-0.741-1.634-1.112-2.932-1.112H539.817z"/>
			<path d="M574.928,252.601l-13.244-28.838v22.898c0,2.106,0.228,3.421,0.683,3.942c0.623,0.708,1.609,1.062,2.957,1.062h1.213
				v0.936h-11.929v-0.936h1.213c1.449,0,2.477-0.438,3.083-1.313c0.371-0.539,0.557-1.77,0.557-3.69v-22.393
				c0-1.517-0.169-2.612-0.506-3.286c-0.236-0.488-0.67-0.897-1.302-1.226c-0.632-0.329-1.646-0.493-3.045-0.493v-0.935h9.705
				l12.435,26.815l12.233-26.815h9.705v0.935h-1.188c-1.467,0-2.503,0.438-3.109,1.314c-0.371,0.539-0.556,1.77-0.556,3.69v22.393
				c0,2.106,0.235,3.421,0.707,3.942c0.624,0.708,1.609,1.062,2.958,1.062h1.188v0.936h-14.558v-0.936h1.213
				c1.466,0,2.493-0.438,3.083-1.313c0.371-0.539,0.557-1.77,0.557-3.69v-22.898l-13.219,28.838H574.928z"/>
			<path d="M611.832,220.199v13.547h7.531c1.955,0,3.261-0.295,3.918-0.885c0.876-0.774,1.364-2.14,1.466-4.095h0.935v11.93h-0.935
				c-0.236-1.668-0.472-2.738-0.708-3.21c-0.303-0.589-0.8-1.053-1.491-1.39c-0.69-0.337-1.752-0.506-3.185-0.506h-7.531v11.298
				c0,1.517,0.067,2.438,0.202,2.768c0.135,0.328,0.37,0.59,0.707,0.783c0.337,0.194,0.978,0.291,1.921,0.291h5.813
				c1.938,0,3.345-0.135,4.221-0.404s1.719-0.801,2.527-1.593c1.045-1.044,2.114-2.619,3.21-4.726h1.011l-2.957,8.593h-26.411
				v-0.936h1.213c0.809,0,1.575-0.193,2.3-0.581c0.539-0.27,0.905-0.674,1.1-1.213c0.193-0.539,0.291-1.643,0.291-3.312v-22.267
				c0-2.173-0.22-3.513-0.657-4.019c-0.606-0.673-1.618-1.011-3.033-1.011h-1.213v-0.935h26.411l0.379,7.506h-0.985
				c-0.354-1.803-0.745-3.041-1.175-3.715s-1.066-1.188-1.908-1.542c-0.675-0.253-1.862-0.379-3.564-0.379H611.832z"/>
			<path d="M633.192,218.329h9.301l20.952,25.703v-19.764c0-2.106-0.235-3.421-0.707-3.943c-0.624-0.708-1.609-1.062-2.957-1.062
				h-1.188v-0.935h11.93v0.935h-1.213c-1.449,0-2.478,0.438-3.084,1.314c-0.37,0.539-0.556,1.77-0.556,3.69v28.888h-0.91
				l-22.595-27.6v21.104c0,2.106,0.228,3.421,0.682,3.942c0.641,0.708,1.626,1.062,2.958,1.062h1.213v0.936h-11.93v-0.936h1.188
				c1.467,0,2.503-0.438,3.109-1.313c0.37-0.539,0.556-1.77,0.556-3.69v-23.834c-0.994-1.162-1.748-1.929-2.262-2.3
				c-0.515-0.37-1.269-0.716-2.263-1.036c-0.488-0.151-1.229-0.228-2.224-0.228V218.329z"/>
			<path d="M702.448,218.329l0.379,8.037h-0.961c-0.186-1.416-0.438-2.427-0.758-3.033c-0.522-0.977-1.218-1.697-2.085-2.161
				c-0.868-0.463-2.01-0.695-3.425-0.695h-4.827v26.185c0,2.106,0.228,3.421,0.682,3.942c0.641,0.708,1.626,1.062,2.957,1.062h1.188
				v0.936h-14.533v-0.936h1.214c1.448,0,2.477-0.438,3.083-1.313c0.37-0.539,0.556-1.77,0.556-3.69v-26.185h-4.119
				c-1.601,0-2.738,0.118-3.412,0.354c-0.876,0.32-1.626,0.935-2.249,1.845c-0.624,0.91-0.995,2.14-1.112,3.69h-0.961l0.404-8.037
				H702.448z"/>
			<path d="M729.091,217.545v11.854h-0.935c-0.304-2.274-0.847-4.085-1.631-5.434c-0.783-1.348-1.899-2.418-3.349-3.21
				s-2.949-1.188-4.499-1.188c-1.752,0-3.201,0.535-4.348,1.604c-1.146,1.07-1.718,2.287-1.718,3.652
				c0,1.045,0.361,1.997,1.086,2.855c1.045,1.265,3.53,2.949,7.457,5.056c3.201,1.719,5.387,3.037,6.559,3.955
				c1.171,0.919,2.072,2.001,2.704,3.248s0.947,2.553,0.947,3.917c0,2.595-1.007,4.832-3.02,6.711
				c-2.014,1.879-4.604,2.817-7.772,2.817c-0.994,0-1.93-0.075-2.806-0.228c-0.522-0.084-1.604-0.392-3.247-0.922
				c-1.644-0.531-2.684-0.797-3.122-0.797c-0.421,0-0.754,0.127-0.998,0.38s-0.426,0.775-0.543,1.566h-0.936v-11.752h0.936
				c0.438,2.46,1.027,4.301,1.769,5.522s1.874,2.236,3.399,3.045c1.525,0.81,3.197,1.214,5.018,1.214
				c2.105,0,3.77-0.557,4.991-1.669c1.222-1.111,1.833-2.426,1.833-3.942c0-0.843-0.232-1.693-0.695-2.553
				c-0.464-0.859-1.184-1.659-2.161-2.401c-0.657-0.505-2.451-1.579-5.384-3.222c-2.932-1.644-5.017-2.953-6.255-3.931
				c-1.238-0.977-2.179-2.056-2.818-3.235c-0.641-1.179-0.961-2.477-0.961-3.892c0-2.46,0.944-4.579,2.831-6.356
				s4.288-2.667,7.203-2.667c1.82,0,3.749,0.447,5.788,1.34c0.943,0.421,1.609,0.632,1.997,0.632c0.438,0,0.796-0.13,1.074-0.392
				c0.277-0.261,0.501-0.788,0.67-1.58H729.091z"/>
			<path d="M780.733,217.545l0.783,11.651h-0.783c-1.045-3.487-2.536-5.998-4.474-7.531s-4.263-2.3-6.976-2.3
				c-2.274,0-4.33,0.577-6.167,1.731s-3.281,2.994-4.334,5.521c-1.054,2.528-1.58,5.671-1.58,9.428c0,3.101,0.497,5.788,1.491,8.062
				s2.489,4.019,4.486,5.231c1.996,1.214,4.275,1.82,6.837,1.82c2.224,0,4.187-0.476,5.889-1.428
				c1.701-0.952,3.572-2.844,5.61-5.675l0.784,0.506c-1.719,3.05-3.725,5.282-6.016,6.697c-2.292,1.416-5.013,2.123-8.163,2.123
				c-5.679,0-10.076-2.105-13.193-6.318c-2.325-3.134-3.488-6.824-3.488-11.07c0-3.42,0.767-6.562,2.3-9.427s3.644-5.084,6.331-6.66
				c2.688-1.575,5.624-2.363,8.809-2.363c2.477,0,4.92,0.606,7.329,1.82c0.708,0.37,1.214,0.556,1.517,0.556
				c0.455,0,0.851-0.16,1.188-0.48c0.438-0.455,0.749-1.087,0.935-1.896H780.733z"/>
			<path d="M815.01,243.123l0.834,0.177l-2.932,9.301h-26.538v-0.936h1.289c1.449,0,2.485-0.471,3.108-1.415
				c0.354-0.539,0.531-1.786,0.531-3.74v-22.115c0-2.14-0.236-3.479-0.708-4.019c-0.657-0.741-1.635-1.112-2.932-1.112h-1.289
				v-0.935h15.519v0.935c-1.819-0.017-3.096,0.151-3.829,0.506c-0.733,0.354-1.234,0.8-1.504,1.339
				c-0.27,0.54-0.404,1.829-0.404,3.867v21.534c0,1.398,0.135,2.359,0.404,2.881c0.202,0.354,0.514,0.615,0.936,0.783
				c0.421,0.169,1.735,0.253,3.942,0.253h2.502c2.629,0,4.474-0.193,5.535-0.581s2.03-1.074,2.907-2.06
				C813.257,246.8,814.134,245.246,815.01,243.123z"/>
			<path d="M829.015,220.199v13.547h7.531c1.955,0,3.261-0.295,3.918-0.885c0.876-0.774,1.365-2.14,1.466-4.095h0.936v11.93h-0.936
				c-0.236-1.668-0.472-2.738-0.708-3.21c-0.303-0.589-0.8-1.053-1.491-1.39c-0.69-0.337-1.752-0.506-3.185-0.506h-7.531v11.298
				c0,1.517,0.067,2.438,0.202,2.768c0.135,0.328,0.37,0.59,0.708,0.783c0.337,0.194,0.977,0.291,1.921,0.291h5.812
				c1.938,0,3.345-0.135,4.221-0.404s1.719-0.801,2.527-1.593c1.045-1.044,2.115-2.619,3.21-4.726h1.012l-2.958,8.593H819.26v-0.936
				h1.213c0.809,0,1.575-0.193,2.3-0.581c0.539-0.27,0.906-0.674,1.1-1.213s0.291-1.643,0.291-3.312v-22.267
				c0-2.173-0.22-3.513-0.657-4.019c-0.606-0.673-1.617-1.011-3.033-1.011h-1.213v-0.935h26.411l0.38,7.506h-0.986
				c-0.354-1.803-0.745-3.041-1.175-3.715s-1.066-1.188-1.908-1.542c-0.674-0.253-1.862-0.379-3.563-0.379H829.015z"/>
			<path d="M874.74,241.126h-13.269l-2.325,5.409c-0.573,1.331-0.859,2.325-0.859,2.982c0,0.522,0.248,0.981,0.745,1.377
				c0.497,0.396,1.571,0.653,3.223,0.771v0.936h-10.792v-0.936c1.432-0.252,2.359-0.581,2.78-0.985
				c0.859-0.809,1.812-2.451,2.856-4.929l12.056-28.206h0.885l11.929,28.51c0.961,2.292,1.833,3.778,2.616,4.461
				s1.874,1.065,3.273,1.149v0.936h-13.522v-0.936c1.365-0.066,2.287-0.294,2.768-0.682s0.721-0.859,0.721-1.416
				c0-0.741-0.338-1.912-1.011-3.513L874.74,241.126z M874.033,239.256l-5.813-13.851l-5.965,13.851H874.033z"/>
			<path d="M924.661,252.601h-9.149l-11.601-16.023c-0.859,0.033-1.559,0.05-2.098,0.05c-0.22,0-0.455-0.004-0.708-0.013
				c-0.253-0.008-0.514-0.021-0.783-0.037v9.958c0,2.156,0.235,3.496,0.708,4.019c0.64,0.741,1.6,1.111,2.881,1.111h1.34v0.936
				h-14.685v-0.936h1.289c1.448,0,2.485-0.471,3.108-1.415c0.354-0.522,0.531-1.761,0.531-3.715v-22.141
				c0-2.156-0.236-3.496-0.708-4.019c-0.657-0.741-1.635-1.112-2.932-1.112h-1.289v-0.935h12.485c3.64,0,6.322,0.265,8.05,0.796
				c1.727,0.53,3.193,1.508,4.397,2.932c1.205,1.424,1.808,3.121,1.808,5.093c0,2.106-0.687,3.935-2.061,5.484
				c-1.373,1.551-3.5,2.646-6.381,3.286l7.076,9.831c1.618,2.259,3.008,3.758,4.171,4.499c1.162,0.742,2.679,1.213,4.549,1.415
				V252.601z M900.322,234.984c0.319,0,0.598,0.004,0.834,0.013c0.235,0.009,0.43,0.013,0.581,0.013
				c3.269,0,5.733-0.708,7.393-2.123c1.66-1.415,2.49-3.218,2.49-5.409c0-2.14-0.67-3.879-2.01-5.219s-3.113-2.009-5.32-2.009
				c-0.978,0-2.3,0.16-3.968,0.479V234.984z"/>
			<path d="M941.422,251.665v0.936h-14.685v-0.936h1.213c1.416,0,2.443-0.412,3.084-1.238c0.404-0.539,0.606-1.836,0.606-3.892
				v-22.141c0-1.735-0.11-2.881-0.329-3.438c-0.168-0.421-0.514-0.783-1.036-1.087c-0.741-0.404-1.517-0.606-2.325-0.606h-1.213
				v-0.935h14.685v0.935h-1.238c-1.399,0-2.419,0.413-3.059,1.238c-0.422,0.54-0.632,1.837-0.632,3.893v22.141
				c0,1.735,0.109,2.881,0.328,3.437c0.169,0.422,0.522,0.784,1.062,1.087c0.725,0.404,1.491,0.606,2.301,0.606H941.422z"/>
			<path d="M943.245,218.329h9.301l20.953,25.703v-19.764c0-2.106-0.236-3.421-0.708-3.943c-0.624-0.708-1.609-1.062-2.957-1.062
				h-1.188v-0.935h11.93v0.935h-1.213c-1.449,0-2.477,0.438-3.084,1.314c-0.37,0.539-0.556,1.77-0.556,3.69v28.888h-0.91
				l-22.595-27.6v21.104c0,2.106,0.228,3.421,0.683,3.942c0.64,0.708,1.626,1.062,2.957,1.062h1.213v0.936h-11.93v-0.936h1.188
				c1.466,0,2.502-0.438,3.108-1.313c0.37-0.539,0.556-1.77,0.556-3.69v-23.834c-0.994-1.162-1.748-1.929-2.262-2.3
				c-0.514-0.37-1.268-0.716-2.262-1.036c-0.489-0.151-1.23-0.228-2.225-0.228V218.329z"/>
			<path d="M1014.32,217.545l0.885,10.817h-0.885c-0.893-2.695-2.047-4.726-3.462-6.091c-2.039-1.972-4.659-2.957-7.86-2.957
				c-4.364,0-7.684,1.728-9.958,5.181c-1.904,2.916-2.856,6.387-2.856,10.413c0,3.27,0.632,6.252,1.896,8.947
				c1.264,2.696,2.919,4.672,4.967,5.927c2.047,1.256,4.148,1.883,6.306,1.883c1.264,0,2.485-0.159,3.665-0.479
				c1.179-0.32,2.316-0.792,3.412-1.416v-9.907c0-1.719-0.131-2.844-0.393-3.374c-0.261-0.531-0.665-0.936-1.213-1.213
				c-0.548-0.278-1.513-0.417-2.894-0.417v-0.961h13.269v0.961h-0.632c-1.314,0-2.216,0.438-2.704,1.313
				c-0.337,0.624-0.506,1.854-0.506,3.69v10.489c-1.938,1.045-3.85,1.812-5.737,2.3c-1.887,0.488-3.984,0.732-6.293,0.732
				c-6.622,0-11.651-2.123-15.089-6.369c-2.578-3.185-3.867-6.857-3.867-11.02c0-3.016,0.725-5.905,2.174-8.669
				c1.719-3.285,4.077-5.812,7.077-7.582c2.511-1.466,5.476-2.199,8.896-2.199c1.247,0,2.38,0.102,3.399,0.304
				s2.464,0.648,4.334,1.34c0.943,0.354,1.576,0.53,1.896,0.53c0.32,0,0.595-0.147,0.822-0.442s0.366-0.872,0.417-1.731H1014.32z"/>
		</g>
		<g>
			<path d="M459.958,153.739h-32.532l-3.872,8.965c-1.268,2.988-1.901,5.457-1.901,7.403c0,2.581,1.041,4.482,3.124,5.705
				c1.223,0.725,4.233,1.268,9.033,1.63v2.513h-30.63v-2.513c3.305-0.498,6.021-1.868,8.15-4.109
				c2.127-2.241,4.754-6.87,7.878-13.889l32.939-73.485h1.291l33.211,75.522c3.169,7.155,5.772,11.66,7.811,13.516
				c1.538,1.404,3.712,2.219,6.52,2.445v2.513h-44.553v-2.513h1.834c3.576,0,6.089-0.498,7.539-1.494
				c0.996-0.724,1.494-1.766,1.494-3.124c0-0.815-0.136-1.652-0.408-2.514c-0.091-0.407-0.77-2.105-2.037-5.094L459.958,153.739z
				 M457.649,148.714l-13.719-31.716l-14.126,31.716H457.649z"/>
			<path d="M590.357,147.627l-3.464,32.328h-81.771v-2.513h3.056c2.671,0,4.822-0.476,6.452-1.427
				c1.177-0.633,2.082-1.72,2.717-3.26c0.497-1.087,0.747-3.939,0.747-8.558v-60.581c0-4.709-0.25-7.651-0.747-8.829
				c-0.499-1.177-1.506-2.207-3.022-3.09c-1.518-0.884-3.565-1.325-6.146-1.325h-3.056v-2.513h49.104v2.513h-4.008
				c-2.672,0-4.822,0.476-6.452,1.427c-1.178,0.635-2.105,1.721-2.784,3.26c-0.499,1.087-0.747,3.939-0.747,8.558v58.679
				c0,4.71,0.271,7.708,0.815,8.999c0.543,1.29,1.606,2.253,3.191,2.887c1.132,0.407,3.871,0.61,8.218,0.61h7.675
				c4.89,0,8.965-0.859,12.225-2.58c3.261-1.721,6.079-4.438,8.456-8.15c2.377-3.712,4.629-9.19,6.758-16.436H590.357z"/>
			<path d="M691.96,131.123c8.738,2.038,14.874,4.506,18.406,7.403c5.07,4.12,7.606,9.464,7.606,16.028
				c0,6.927-2.784,12.655-8.354,17.183c-6.838,5.479-16.775,8.218-29.815,8.218h-46.795v-2.513c4.256,0,7.142-0.396,8.659-1.188
				c1.517-0.792,2.581-1.822,3.192-3.091c0.611-1.267,0.917-4.391,0.917-9.372v-59.766c0-4.979-0.306-8.116-0.917-9.406
				s-1.688-2.319-3.226-3.09c-1.54-0.77-4.415-1.155-8.626-1.155v-2.513h44.146c10.55,0,18.021,0.94,22.413,2.818
				c4.391,1.88,7.854,4.687,10.391,8.422c2.535,3.735,3.804,7.709,3.804,11.919c0,4.438-1.607,8.387-4.822,11.851
				C705.723,126.335,700.064,129.086,691.96,131.123z M667.239,134.587v29.544l-0.068,3.396c0,2.445,0.622,4.29,1.868,5.535
				c1.244,1.246,3.09,1.868,5.535,1.868c3.621,0,6.961-0.804,10.018-2.411c3.056-1.607,5.399-3.939,7.029-6.996
				c1.63-3.056,2.444-6.462,2.444-10.221c0-4.302-0.996-8.161-2.988-11.58c-1.992-3.418-4.731-5.807-8.218-7.165
				C679.372,135.198,674.166,134.542,667.239,134.587z M667.239,129.289c6.429,0,11.172-0.724,14.229-2.173
				c3.056-1.448,5.398-3.486,7.029-6.112c1.63-2.626,2.444-5.976,2.444-10.051s-0.804-7.413-2.411-10.018
				c-1.607-2.604-3.905-4.585-6.894-5.942c-2.988-1.358-7.788-2.015-14.397-1.97V129.289z"/>
			<path d="M780.726,153.739h-32.531l-3.871,8.965c-1.269,2.988-1.902,5.457-1.902,7.403c0,2.581,1.041,4.482,3.124,5.705
				c1.223,0.725,4.233,1.268,9.033,1.63v2.513h-30.63v-2.513c3.305-0.498,6.021-1.868,8.149-4.109
				c2.128-2.241,4.755-6.87,7.879-13.889l32.939-73.485h1.29l33.211,75.522c3.169,7.155,5.773,11.66,7.811,13.516
				c1.539,1.404,3.712,2.219,6.52,2.445v2.513h-44.553v-2.513h1.834c3.576,0,6.089-0.498,7.538-1.494
				c0.996-0.724,1.494-1.766,1.494-3.124c0-0.815-0.136-1.652-0.407-2.514c-0.091-0.407-0.771-2.105-2.037-5.094L780.726,153.739z
				 M778.418,148.714l-13.719-31.716l-14.127,31.716H778.418z"/>
			<path d="M860.257,137.982v25.809c0,4.981,0.306,8.116,0.917,9.406c0.611,1.291,1.687,2.321,3.227,3.09
				c1.538,0.771,4.414,1.155,8.625,1.155v2.513h-47.134v-2.513c4.255,0,7.142-0.396,8.659-1.188
				c1.517-0.792,2.581-1.822,3.192-3.091c0.611-1.267,0.916-4.391,0.916-9.372v-59.766c0-4.979-0.305-8.116-0.916-9.406
				s-1.688-2.319-3.227-3.09c-1.54-0.77-4.414-1.155-8.625-1.155v-2.513h42.787c11.139,0,19.288,0.771,24.45,2.31
				c5.161,1.539,9.372,4.38,12.632,8.523c3.26,4.143,4.891,8.999,4.891,14.568c0,6.791-2.445,12.406-7.335,16.842
				c-3.125,2.808-7.494,4.913-13.108,6.316l22.141,31.174c2.897,4.03,4.958,6.543,6.181,7.538c1.856,1.404,4.007,2.174,6.452,2.31
				v2.513h-29l-29.68-41.973H860.257z M860.257,92.819v40.342h3.871c6.293,0,11.003-0.578,14.127-1.732s5.58-3.236,7.369-6.248
				c1.788-3.011,2.683-6.938,2.683-11.783c0-7.019-1.642-12.202-4.924-15.554c-3.283-3.35-8.569-5.025-15.858-5.025H860.257z"/>
			<path d="M990.249,180.771c2.082,6.021,5.319,10.549,9.712,13.583c4.392,3.033,9.893,4.55,16.504,4.55
				c1.811,0,3.735-0.181,5.772-0.543v4.143c-6.837,1.721-12.949,2.581-18.337,2.581c-8.422,0-15.95-2.061-22.582-6.181
				c-6.634-4.12-11.626-10.165-14.976-18.133c-11.139-2.354-20.115-7.811-26.93-16.368s-10.221-18.768-10.221-30.631
				c0-13.764,4.618-25.207,13.854-34.331c9.236-9.123,20.963-13.686,35.181-13.686c14.171,0,25.853,4.574,35.045,13.72
				c9.191,9.146,13.787,20.578,13.787,34.296c0,11.954-3.6,22.345-10.799,31.174S1000.39,179.05,990.249,180.771z M978.16,90.917
				c-8.15,0-14.444,4.234-18.881,12.7c-3.713,7.108-5.569,17.228-5.569,30.358c0,15.757,2.784,27.438,8.354,35.045
				c3.894,5.298,9.259,7.946,16.097,7.946c6.882,0,12.247-2.604,16.096-7.811c5.569-7.471,8.354-18.699,8.354-33.687
				c0-14.76-1.743-25.445-5.229-32.056C993.033,95.083,986.626,90.917,978.16,90.917z"/>
		</g>
	</g>
	<g>
		<path d="M119.663,205.057L238.147,33.733c0.84-1.214,2.707-0.938,3.16,0.467l40.958,127.307c1.263,3.927,0.102,8.218-2.953,10.989
			c-15.207,13.795-64.782,53.835-140.963,67.422c-3.871,0.69-7.735-1.306-9.406-4.864c-3.753-7.993-7.584-15.831-9.97-20.666
			C117.489,211.381,117.756,207.815,119.663,205.057z"/>
		<g>
			<path style="fill:#D62511;" d="M138.443,5.005l14.773,26.812c0.713,1.295,0.631,2.882-0.213,4.096L47.268,187.985
				c-0.893,1.284-0.976,2.965-0.213,4.331l24.662,44.179c0.825,1.478-0.39,3.262-2.066,3.025
				c-7.063-0.998-21.376-3.346-26.626-6.597c-2.617-2.663-29.382-34.116-37.87-44.101c-1.515-1.783-1.621-4.357-0.267-6.265
				L131.174,4.592C133.008,2.007,136.913,2.229,138.443,5.005z"/>
		</g>
		<g>
			<path style="fill:#00812E;" d="M186.394,23.876L199.962,48.5c0.66,1.198,0.602,2.662-0.15,3.804l-99.143,150.45
				c-0.674,1.023-0.827,2.303-0.412,3.455l11.877,33.029c0.4,1.111-0.329,2.305-1.501,2.451c-4.713,0.587-15.55,1.503-20.619-1.636
				c-2.491-2.535-18.366-36.628-22.73-46.054c-0.692-1.494-0.548-3.232,0.373-4.598L179.416,23.564
				C181.126,21.025,184.917,21.195,186.394,23.876z"/>
		</g>
		<path d="M323.071,177.041c-46.298,44.285-84.911,67.157-111.273,77.21c-47.928,18.307-89.046,26.762-124.984,19.414
			c-19.921-6.871-34.278-18.015-43.24-26.362c38.336,13.081,88.785,17.416,152.653-11.175
			c71.062-29.79,144.737-103.219,127.674-148.948c-3.197-8.516-13.942-27.914-61.393-38.889c-0.938-0.215-1.906-0.43-2.874-0.646
			c1.921-0.461,3.828-0.876,5.734-1.26c40.304-8.07,77.456,0.63,91.644,23.503C378.377,104.334,341.486,157.719,323.071,177.041z"/>
		<path d="M256.056,37.963c11.875-2.197,23.942-3.527,36.058-3.596c12.097-0.056,24.301,1.02,36.07,4.276
			c5.876,1.619,11.617,3.856,16.974,6.868c5.345,3.012,10.31,6.838,14.346,11.555c4.045,4.699,7.116,10.261,8.941,16.197
			c0.905,2.95,1.661,5.891,2.27,8.916c0.609,3.022,0.983,6.096,1.197,9.158c0.423,6.139,0.135,12.316-0.766,18.398
			c-0.898,6.077-2.431,12.09-4.583,17.833c-4.205,11.535-10.264,22.299-17.301,32.249c-7.028,9.976-14.987,19.202-23.156,28.145
			c-8.165,8.949-16.763,17.616-25.95,25.571c-36.652,31.941-81.205,54.921-128.708,65.321c-11.884,2.526-23.945,4.229-36.068,4.978
			c-3.031,0.176-6.067,0.267-9.1,0.365l-4.554,0.015c-1.518,0.012-3.035,0.016-4.552-0.054c-6.052-0.128-12.184-0.476-18.177-1.584
			c-12.006-2.098-23.606-6.167-34.366-11.751c-10.784-5.555-20.715-12.676-29.531-20.932c4.549,3.973,9.333,7.669,14.357,11
			c5.011,3.346,10.226,6.383,15.638,9.009c10.804,5.28,22.363,9.016,34.207,10.792c2.96,0.444,5.935,0.776,8.918,0.975
			c2.975,0.22,5.987,0.214,8.989,0.275c1.501,0.047,3.003,0.018,4.505-0.017l4.504-0.085c2.999-0.145,6-0.281,8.994-0.502
			c11.976-0.929,23.868-2.799,35.57-5.478c23.367-5.5,46.056-13.913,67.361-24.969c5.344-2.727,10.57-5.679,15.749-8.708
			c5.13-3.109,10.234-6.267,15.172-9.676c9.942-6.719,19.421-14.109,28.471-21.983c9.099-7.839,17.565-16.325,25.702-25.195
			c8.146-8.859,15.991-17.968,22.981-27.675c6.978-9.701,12.949-20.134,17.113-31.276c4.197-11.087,6.263-23.012,5.642-34.864
			c-0.162-2.964-0.473-5.903-1.012-8.811c-0.537-2.903-1.239-5.831-2.065-8.666c-1.647-5.634-4.46-10.906-8.231-15.417
			c-3.762-4.525-8.454-8.259-13.578-11.242c-5.137-2.98-10.698-5.237-16.416-6.977c-11.467-3.463-23.538-4.82-35.563-5.04
			C280.064,35.189,267.996,36.152,256.056,37.963z"/>
	</g>
</g>
</svg>
